<svg width="24" height="24" viewBox="0 0 24 24" fill="none" xmlns="http://www.w3.org/2000/svg">
<circle cx="12" cy="12" r="12" fill="#F3BA2F"/>
<g clip-path="url(#clip0_301_965)">
<path d="M9.33807 10.9054L12.0016 8.24292L14.6663 10.9076L16.2153 9.35752L12.0016 5.14282L7.78802 9.35644L9.33807 10.9054Z" fill="white"/>
<path d="M5.14288 12.0005L6.69185 10.4504L8.24189 12.0005L6.69185 13.5494L5.14288 12.0005Z" fill="white"/>
<path d="M9.33807 13.0946L12.0016 15.7582L14.6663 13.0935L16.2163 14.6414L12.0027 18.8561L7.78802 14.6446L9.33807 13.0946Z" fill="white"/>
<path d="M15.7582 12.0005L17.3071 10.4504L18.8572 11.9994L17.3071 13.5505L15.7582 12.0005Z" fill="white"/>
<path d="M13.5734 11.9993L12.0016 10.4265L10.8394 11.5888L10.7051 11.722L10.4299 11.9971L12.0016 13.5678L13.5734 12.0004V11.9993Z" fill="white"/>
</g>
<defs>
<clipPath id="clip0_301_965">
<rect width="13.7143" height="13.7143" fill="white" transform="translate(5.14288 5.14282)"/>
</clipPath>
</defs>
</svg>
