<svg width="510" height="589" viewBox="0 0 510 589" fill="none" xmlns="http://www.w3.org/2000/svg">
<mask id="mask0_151_1530" style="mask-type:alpha" maskUnits="userSpaceOnUse" x="0" y="0" width="510" height="589">
<rect width="510" height="589" rx="15" fill="#191C2E"/>
<rect width="510" height="589" rx="15" fill="url(#paint0_radial_151_1530)" fill-opacity="0.2"/>
</mask>
<g mask="url(#mask0_151_1530)">
<mask id="path-2-outside-1_151_1530" maskUnits="userSpaceOnUse" x="14" y="130.281" width="474" height="306" fill="black">
<rect fill="white" x="14" y="130.281" width="474" height="306"/>
<path d="M329.643 283.479L407.513 333.693L485.383 283.479L407.513 233.266L329.643 283.479Z"/>
<path d="M329.643 384.465L407.513 434.679L485.383 384.465L407.513 334.251L329.643 384.465Z"/>
<path d="M173.038 283.479L250.908 333.693L328.778 283.479L250.908 233.266L173.038 283.479Z"/>
<path d="M173.038 182.494L250.908 232.708L328.778 182.494L250.908 132.281L173.038 182.494Z"/>
<path d="M16.4326 182.494L94.3025 232.708L172.172 182.494L94.3025 132.281L16.4326 182.494Z"/>
<path d="M251.34 333.972L329.21 384.186L407.08 333.972L329.21 283.759L251.34 333.972Z"/>
<path d="M94.7351 333.973L172.605 384.186L250.475 333.973L172.605 283.759L94.7351 333.973Z"/>
<path d="M94.7351 232.987L172.605 283.201L250.475 232.987L172.605 182.773L94.7351 232.987Z"/>
<path d="M173.038 384.465L250.908 434.679L328.778 384.465L250.908 334.251L173.038 384.465Z"/>
<path d="M16.4325 384.465L94.3024 434.679L172.172 384.465L94.3024 334.251L16.4325 384.465Z"/>
<path d="M16.4326 283.479L94.3025 333.693L172.172 283.479L94.3025 233.266L16.4326 283.479Z"/>
</mask>
<path d="M93.8699 232.987L94.1409 233.407L94.7925 232.987L94.1409 232.567L93.8699 232.987ZM16.271 283.621L94.1409 233.407L93.5989 232.567L15.729 282.78L16.271 283.621ZM94.1409 232.567L16.271 182.353L15.729 183.193L93.5989 233.407L94.1409 232.567ZM329.643 283.479L329.101 282.639L327.798 283.479L329.101 284.32L329.643 283.479ZM407.513 333.693L406.971 334.534L407.513 334.883L408.055 334.534L407.513 333.693ZM485.383 283.479L485.925 284.32L487.228 283.479L485.925 282.639L485.383 283.479ZM407.513 233.266L408.055 232.425L407.513 232.076L406.971 232.425L407.513 233.266ZM329.643 384.465L329.101 383.625L327.798 384.465L329.101 385.306L329.643 384.465ZM407.513 434.679L406.971 435.519L407.513 435.869L408.055 435.519L407.513 434.679ZM485.383 384.465L485.925 385.306L487.228 384.465L485.925 383.625L485.383 384.465ZM407.513 334.251L408.055 333.411L407.513 333.062L406.971 333.411L407.513 334.251ZM173.038 283.479L172.496 282.639L171.193 283.479L172.496 284.32L173.038 283.479ZM250.908 333.693L250.366 334.534L250.908 334.883L251.45 334.534L250.908 333.693ZM328.778 283.479L329.32 284.32L330.623 283.479L329.32 282.639L328.778 283.479ZM250.908 233.266L251.45 232.425L250.908 232.076L250.366 232.425L250.908 233.266ZM173.038 182.494L172.496 181.654L171.192 182.494L172.496 183.335L173.038 182.494ZM250.908 232.708L250.366 233.548L250.908 233.898L251.45 233.548L250.908 232.708ZM328.778 182.494L329.319 183.335L330.623 182.494L329.319 181.654L328.778 182.494ZM250.908 132.281L251.45 131.44L250.908 131.091L250.366 131.44L250.908 132.281ZM16.4326 182.494L15.8906 181.654L14.5873 182.494L15.8906 183.335L16.4326 182.494ZM94.3025 232.708L93.7606 233.548L94.3025 233.898L94.8444 233.548L94.3025 232.708ZM172.172 182.494L172.714 183.335L174.018 182.494L172.714 181.654L172.172 182.494ZM94.3025 132.281L94.8444 131.44L94.3025 131.091L93.7606 131.44L94.3025 132.281ZM251.34 333.972L250.798 333.132L249.495 333.972L250.798 334.813L251.34 333.972ZM329.21 384.186L328.668 385.027L329.21 385.376L329.752 385.027L329.21 384.186ZM407.08 333.972L407.622 334.813L408.925 333.972L407.622 333.132L407.08 333.972ZM329.21 283.759L329.752 282.918L329.21 282.569L328.668 282.918L329.21 283.759ZM94.7351 333.973L94.1932 333.132L92.8899 333.973L94.1932 334.813L94.7351 333.973ZM172.605 384.186L172.063 385.027L172.605 385.376L173.147 385.027L172.605 384.186ZM250.475 333.973L251.017 334.813L252.32 333.973L251.017 333.132L250.475 333.973ZM172.605 283.759L173.147 282.918L172.605 282.569L172.063 282.918L172.605 283.759ZM94.7351 232.987L94.1932 232.146L92.8899 232.987L94.1932 233.827L94.7351 232.987ZM172.605 283.201L172.063 284.041L172.605 284.391L173.147 284.041L172.605 283.201ZM250.475 232.987L251.017 233.827L252.32 232.987L251.017 232.146L250.475 232.987ZM172.605 182.773L173.147 181.933L172.605 181.583L172.063 181.933L172.605 182.773ZM173.038 384.465L172.496 383.625L171.193 384.465L172.496 385.306L173.038 384.465ZM250.908 434.679L250.366 435.519L250.908 435.869L251.45 435.519L250.908 434.679ZM328.778 384.465L329.32 385.306L330.623 384.465L329.32 383.625L328.778 384.465ZM250.908 334.251L251.45 333.411L250.908 333.062L250.366 333.411L250.908 334.251ZM16.4325 384.465L15.8906 383.625L14.5873 384.465L15.8906 385.306L16.4325 384.465ZM94.3024 434.679L93.7605 435.519L94.3024 435.869L94.8444 435.519L94.3024 434.679ZM172.172 384.465L172.714 385.306L174.018 384.465L172.714 383.625L172.172 384.465ZM94.3024 334.251L94.8444 333.411L94.3024 333.062L93.7605 333.411L94.3024 334.251ZM16.4326 283.479L15.8906 282.639L14.5873 283.479L15.8906 284.32L16.4326 283.479ZM94.3025 333.693L93.7606 334.534L94.3025 334.883L94.8444 334.534L94.3025 333.693ZM172.172 283.479L172.714 284.32L174.018 283.479L172.714 282.639L172.172 283.479ZM94.3025 233.266L94.8444 232.425L94.3025 232.076L93.7606 232.425L94.3025 233.266ZM329.101 284.32L406.971 334.534L408.055 332.853L330.185 282.639L329.101 284.32ZM408.055 334.534L485.925 284.32L484.841 282.639L406.971 332.853L408.055 334.534ZM485.925 282.639L408.055 232.425L406.971 234.106L484.841 284.32L485.925 282.639ZM406.971 232.425L329.101 282.639L330.185 284.32L408.055 234.106L406.971 232.425ZM329.101 385.306L406.971 435.519L408.055 433.839L330.185 383.625L329.101 385.306ZM408.055 435.519L485.925 385.306L484.841 383.625L406.971 433.839L408.055 435.519ZM485.925 383.625L408.055 333.411L406.971 335.092L484.841 385.306L485.925 383.625ZM406.971 333.411L329.101 383.625L330.185 385.306L408.055 335.092L406.971 333.411ZM172.496 284.32L250.366 334.534L251.45 332.853L173.58 282.639L172.496 284.32ZM251.45 334.534L329.32 284.32L328.236 282.639L250.366 332.853L251.45 334.534ZM329.32 282.639L251.45 232.425L250.366 234.106L328.236 284.32L329.32 282.639ZM250.366 232.425L172.496 282.639L173.58 284.32L251.45 234.106L250.366 232.425ZM172.496 183.335L250.366 233.548L251.45 231.868L173.58 181.654L172.496 183.335ZM251.45 233.548L329.319 183.335L328.236 181.654L250.366 231.868L251.45 233.548ZM329.319 181.654L251.45 131.44L250.366 133.121L328.236 183.335L329.319 181.654ZM250.366 131.44L172.496 181.654L173.58 183.335L251.45 133.121L250.366 131.44ZM15.8906 183.335L93.7606 233.548L94.8444 231.868L16.9745 181.654L15.8906 183.335ZM94.8444 233.548L172.714 183.335L171.631 181.654L93.7606 231.868L94.8444 233.548ZM172.714 181.654L94.8444 131.44L93.7606 133.121L171.631 183.335L172.714 181.654ZM93.7606 131.44L15.8906 181.654L16.9745 183.335L94.8444 133.121L93.7606 131.44ZM250.798 334.813L328.668 385.027L329.752 383.346L251.882 333.132L250.798 334.813ZM329.752 385.027L407.622 334.813L406.538 333.132L328.668 383.346L329.752 385.027ZM407.622 333.132L329.752 282.918L328.668 284.599L406.538 334.813L407.622 333.132ZM328.668 282.918L250.798 333.132L251.882 334.813L329.752 284.599L328.668 282.918ZM94.1932 334.813L172.063 385.027L173.147 383.346L95.277 333.132L94.1932 334.813ZM173.147 385.027L251.017 334.813L249.933 333.132L172.063 383.346L173.147 385.027ZM251.017 333.132L173.147 282.918L172.063 284.599L249.933 334.813L251.017 333.132ZM172.063 282.918L94.1932 333.132L95.277 334.813L173.147 284.599L172.063 282.918ZM94.1932 233.827L172.063 284.041L173.147 282.36L95.277 232.146L94.1932 233.827ZM173.147 284.041L251.017 233.827L249.933 232.146L172.063 282.36L173.147 284.041ZM251.017 232.146L173.147 181.933L172.063 183.614L249.933 233.827L251.017 232.146ZM172.063 181.933L94.1932 232.146L95.277 233.827L173.147 183.614L172.063 181.933ZM172.496 385.306L250.366 435.519L251.45 433.839L173.58 383.625L172.496 385.306ZM251.45 435.519L329.32 385.306L328.236 383.625L250.366 433.839L251.45 435.519ZM329.32 383.625L251.45 333.411L250.366 335.092L328.236 385.306L329.32 383.625ZM250.366 333.411L172.496 383.625L173.58 385.306L251.45 335.092L250.366 333.411ZM15.8906 385.306L93.7605 435.519L94.8444 433.839L16.9744 383.625L15.8906 385.306ZM94.8444 435.519L172.714 385.306L171.63 383.625L93.7605 433.839L94.8444 435.519ZM172.714 383.625L94.8444 333.411L93.7605 335.092L171.63 385.306L172.714 383.625ZM93.7605 333.411L15.8906 383.625L16.9744 385.306L94.8444 335.092L93.7605 333.411ZM15.8906 284.32L93.7606 334.534L94.8444 332.853L16.9745 282.639L15.8906 284.32ZM94.8444 334.534L172.714 284.32L171.631 282.639L93.7606 332.853L94.8444 334.534ZM172.714 282.639L94.8444 232.425L93.7606 234.106L171.631 284.32L172.714 282.639ZM93.7606 232.425L15.8906 282.639L16.9745 284.32L94.8444 234.106L93.7606 232.425Z" fill="url(#paint1_radial_151_1530)" mask="url(#path-2-outside-1_151_1530)"/>
<path d="M198.132 165.943L250.87 132L328.854 182.213" stroke="url(#paint2_linear_151_1530)"/>
<path d="M198.132 165.943L250.87 132L328.854 182.213" stroke="url(#paint3_radial_151_1530)"/>
<path d="M145.114 200.447L94.3405 232.987L202.62 302.836" stroke="url(#paint4_linear_151_1530)"/>
<path d="M145.114 200.447L94.3405 232.987L202.62 302.836" stroke="url(#paint5_radial_151_1530)"/>
<path d="M434.328 250.098L485.944 283.48L378.505 352.768" stroke="url(#paint6_linear_151_1530)"/>
<path d="M434.328 250.098L485.944 283.48L378.505 352.768" stroke="url(#paint7_radial_151_1530)"/>
<path d="M380.749 250.098L291.601 307.972" stroke="url(#paint8_linear_151_1530)"/>
<path d="M392.812 425.422L277.799 351.365" stroke="url(#paint9_linear_151_1530)"/>
<ellipse cx="94.3405" cy="233.267" rx="1.68311" ry="1.12207" fill="#BA8CF4"/>
<path d="M99.1399 233.267C99.1399 234.087 98.6413 234.86 97.7723 235.439C96.905 236.018 95.6924 236.383 94.3406 236.383C92.9887 236.383 91.7761 236.018 90.9088 235.439C90.0398 234.86 89.5412 234.087 89.5412 233.267C89.5412 232.447 90.0398 231.674 90.9088 231.095C91.7761 230.517 92.9887 230.151 94.3406 230.151C95.6924 230.151 96.905 230.517 97.7723 231.095C98.6413 231.674 99.1399 232.447 99.1399 233.267Z" stroke="#B27DF5" stroke-width="0.5"/>
<g opacity="0.23" filter="url(#filter0_f_151_1530)">
<ellipse cx="94.06" cy="232.706" rx="7.57399" ry="5.04932" fill="#BF8FFB"/>
</g>
<ellipse cx="1.68311" cy="1.12207" rx="1.68311" ry="1.12207" transform="matrix(-1 0 0 1 487.066 282.638)" fill="#BA8CF4"/>
<path d="M480.583 283.76C480.583 284.58 481.082 285.353 481.951 285.933C482.818 286.511 484.031 286.876 485.383 286.876C486.734 286.876 487.947 286.511 488.814 285.933C489.683 285.353 490.182 284.58 490.182 283.76C490.182 282.94 489.683 282.167 488.814 281.588C487.947 281.01 486.734 280.644 485.383 280.644C484.031 280.644 482.818 281.01 481.951 281.588C481.082 282.167 480.583 282.94 480.583 283.76Z" stroke="#B27DF5" stroke-width="0.5"/>
<g opacity="0.23" filter="url(#filter1_f_151_1530)">
<ellipse cx="7.57399" cy="5.04932" rx="7.57399" ry="5.04932" transform="matrix(-1 0 0 1 493.237 278.15)" fill="#BF8FFB"/>
</g>
<ellipse cx="172.886" cy="384.746" rx="1.68311" ry="1.12207" fill="#BA8CF4"/>
<path d="M177.685 384.747C177.685 385.567 177.186 386.339 176.317 386.919C175.45 387.497 174.237 387.863 172.886 387.863C171.534 387.863 170.321 387.497 169.454 386.919C168.585 386.339 168.086 385.567 168.086 384.747C168.086 383.927 168.585 383.154 169.454 382.574C170.321 381.996 171.534 381.63 172.886 381.63C174.237 381.63 175.45 381.996 176.317 382.574C177.186 383.154 177.685 383.927 177.685 384.747Z" stroke="#B27DF5" stroke-width="0.5"/>
<g opacity="0.23" filter="url(#filter2_f_151_1530)">
<ellipse cx="172.605" cy="384.186" rx="7.57399" ry="5.04932" fill="#BF8FFB"/>
</g>
<ellipse cx="328.854" cy="182.213" rx="1.68311" ry="1.12207" fill="#BA8CF4"/>
<path d="M333.653 182.213C333.653 183.033 333.154 183.806 332.285 184.385C331.418 184.963 330.206 185.329 328.854 185.329C327.502 185.329 326.289 184.963 325.422 184.385C324.553 183.806 324.054 183.033 324.054 182.213C324.054 181.393 324.553 180.62 325.422 180.04C326.289 179.462 327.502 179.096 328.854 179.096C330.206 179.096 331.418 179.462 332.285 180.04C333.154 180.62 333.653 181.393 333.653 182.213Z" stroke="#B27DF5" stroke-width="0.5"/>
<g opacity="0.23" filter="url(#filter3_f_151_1530)">
<ellipse cx="328.573" cy="181.652" rx="7.57399" ry="5.04932" fill="#BF8FFB"/>
</g>
<path d="M203.181 189.507C203.181 200.507 193.644 208.862 172.044 208.862C150.444 208.862 140.906 200.507 140.906 189.507C140.906 178.507 140.906 175.481 140.906 175.481L203.181 175.481C203.181 175.481 203.181 183.71 203.181 189.507Z" fill="url(#paint10_linear_151_1530)"/>
<path d="M202.932 176.041C202.932 181.427 199.519 186.337 193.927 189.914C188.338 193.489 180.602 195.708 172.044 195.708C163.486 195.708 155.75 193.489 150.161 189.914C144.57 186.337 141.157 181.427 141.157 176.041C141.157 170.656 144.57 165.745 150.161 162.169C155.75 158.594 163.486 156.375 172.044 156.375C180.602 156.375 188.338 158.594 193.927 162.169C199.519 165.745 202.932 170.656 202.932 176.041Z" fill="#2E2E43" stroke="url(#paint11_linear_151_1530)" stroke-width="0.5"/>
<path d="M151.847 136.208L161.665 175.761H182.423L189.997 136.208H151.847Z" fill="url(#paint12_linear_151_1530)"/>
<ellipse cx="172.044" cy="175.761" rx="10.3792" ry="6.73243" fill="#BF8FFB"/>
<ellipse cx="172.325" cy="201.849" rx="2.24414" ry="2.52466" fill="#BF8FFB"/>
<path d="M151.566 195.958C151.566 197.197 150.628 198.202 149.472 198.202C148.315 198.202 147.639 197.197 147.639 195.958C147.639 194.719 148.577 193.714 149.733 193.714C150.89 193.714 151.566 194.719 151.566 195.958Z" fill="#BF8FFB"/>
<path d="M193.083 195.958C193.083 197.197 194.021 198.202 195.177 198.202C196.334 198.202 197.01 197.197 197.01 195.958C197.01 194.719 196.072 193.714 194.916 193.714C193.759 193.714 193.083 194.719 193.083 195.958Z" fill="#BF8FFB"/>
<path d="M438.256 239.439C438.256 250.439 428.718 258.794 407.118 258.794C385.518 258.794 375.981 250.439 375.981 239.439C375.981 228.439 375.981 225.413 375.981 225.413L438.256 225.413C438.256 225.413 438.256 233.642 438.256 239.439Z" fill="url(#paint13_linear_151_1530)"/>
<path d="M438.006 225.973C438.006 231.359 434.593 236.269 429.001 239.846C423.412 243.421 415.676 245.64 407.118 245.64C398.56 245.64 390.824 243.421 385.235 239.846C379.644 236.269 376.231 231.359 376.231 225.973C376.231 220.588 379.644 215.677 385.235 212.101C390.824 208.526 398.56 206.307 407.118 206.307C415.676 206.307 423.412 208.526 429.001 212.101C434.593 215.677 438.006 220.588 438.006 225.973Z" fill="#2E2E43" stroke="url(#paint14_linear_151_1530)" stroke-width="0.5"/>
<path d="M386.921 186.14L396.739 225.693H417.497L425.071 186.14H386.921Z" fill="url(#paint15_linear_151_1530)"/>
<ellipse cx="407.118" cy="225.693" rx="10.3792" ry="6.73243" fill="#BF8FFB"/>
<ellipse cx="407.399" cy="251.781" rx="2.24414" ry="2.52466" fill="#BF8FFB"/>
<path d="M386.64 245.89C386.64 247.13 385.703 248.135 384.546 248.135C383.389 248.135 382.713 247.13 382.713 245.89C382.713 244.651 383.651 243.646 384.808 243.646C385.964 243.646 386.64 244.651 386.64 245.89Z" fill="#BF8FFB"/>
<path d="M428.157 245.89C428.157 247.13 429.095 248.135 430.252 248.135C431.408 248.135 432.084 247.13 432.084 245.89C432.084 244.651 431.147 243.646 429.99 243.646C428.833 243.646 428.157 244.651 428.157 245.89Z" fill="#BF8FFB"/>
<path d="M435.916 438.22C435.854 449.22 426.27 457.522 404.67 457.401C383.071 457.28 373.58 448.871 373.642 437.871C373.704 426.872 373.72 423.846 373.72 423.846L435.994 424.195C435.994 424.195 435.948 432.423 435.916 438.22Z" fill="url(#paint16_linear_151_1530)"/>
<path d="M435.742 424.754C435.711 430.139 432.271 435.03 426.659 438.576C421.05 442.119 413.302 444.295 404.744 444.247C396.186 444.199 388.463 441.936 382.894 438.33C377.323 434.722 373.937 429.793 373.967 424.407C373.998 419.022 377.438 414.131 383.05 410.585C388.659 407.042 396.407 404.866 404.965 404.914C413.523 404.962 421.246 407.225 426.815 410.831C432.386 414.439 435.772 419.368 435.742 424.754Z" fill="#2E2E43" stroke="url(#paint17_linear_151_1530)" stroke-width="0.5"/>
<path d="M384.881 384.634L394.477 424.241L415.235 424.358L423.03 384.848L384.881 384.634Z" fill="url(#paint18_linear_151_1530)"/>
<ellipse cx="404.856" cy="424.3" rx="10.3792" ry="6.73243" transform="rotate(0.321083 404.856 424.3)" fill="#BF8FFB"/>
<ellipse cx="404.99" cy="450.389" rx="2.24414" ry="2.52466" transform="rotate(0.321083 404.99 450.389)" fill="#BF8FFB"/>
<path d="M384.265 444.382C384.258 445.622 383.315 446.621 382.158 446.615C381.001 446.608 380.331 445.6 380.338 444.36C380.345 443.121 381.288 442.121 382.445 442.128C383.602 442.134 384.272 443.143 384.265 444.382Z" fill="#BF8FFB"/>
<path d="M425.781 444.614C425.774 445.854 426.706 446.864 427.863 446.87C429.02 446.877 429.701 445.876 429.708 444.636C429.715 443.397 428.783 442.387 427.627 442.381C426.47 442.374 425.788 443.375 425.781 444.614Z" fill="#BF8FFB"/>
<path d="M124.076 337.059C124.076 348.059 114.538 356.414 92.938 356.414C71.3381 356.414 61.8005 348.059 61.8005 337.059C61.8005 326.059 61.8005 323.033 61.8005 323.033L124.076 323.033C124.076 323.033 124.076 331.262 124.076 337.059Z" fill="url(#paint19_linear_151_1530)"/>
<path d="M123.826 323.594C123.826 328.979 120.413 333.89 114.821 337.466C109.232 341.041 101.496 343.26 92.9382 343.26C84.3802 343.26 76.6442 341.041 71.0553 337.466C65.4637 333.89 62.0507 328.979 62.0507 323.594C62.0507 318.208 65.4637 313.297 71.0553 309.721C76.6442 306.146 84.3802 303.927 92.9382 303.927C101.496 303.927 109.232 306.146 114.821 309.721C120.413 313.297 123.826 318.208 123.826 323.594Z" fill="#2E2E43" stroke="url(#paint20_linear_151_1530)" stroke-width="0.5"/>
<path d="M72.7407 283.76L82.5589 323.314H103.317L110.891 283.76H72.7407Z" fill="url(#paint21_linear_151_1530)"/>
<ellipse cx="92.938" cy="323.313" rx="10.3792" ry="6.73243" fill="#B27DF5"/>
<ellipse cx="93.2185" cy="349.401" rx="2.24414" ry="2.52466" fill="#BF8FFB"/>
<path d="M72.4602 343.511C72.4602 344.75 71.5224 345.755 70.3656 345.755C69.2089 345.755 68.5329 344.75 68.5329 343.511C68.5329 342.271 69.4707 341.266 70.6275 341.266C71.7842 341.266 72.4602 342.271 72.4602 343.511Z" fill="#BF8FFB"/>
<path d="M113.977 343.511C113.977 344.75 114.915 345.755 116.071 345.755C117.228 345.755 117.904 344.75 117.904 343.511C117.904 342.271 116.966 341.266 115.81 341.266C114.653 341.266 113.977 342.271 113.977 343.511Z" fill="#BF8FFB"/>
<path d="M124.636 353.609L172.605 384.466L216.085 356.414" stroke="url(#paint22_linear_151_1530)"/>
<path d="M221.696 213.07H291.825V338.648L256.993 359.5L221.696 338.414V213.07Z" fill="url(#paint23_linear_151_1530)"/>
<path d="M257.383 296.48L276.267 307.527L258.258 318.574L238.499 307.402L257.383 296.48Z" fill="#B487EE"/>
<path d="M276.267 307.527L276.267 329.244L257.508 340.291L258.258 318.574L276.267 307.527Z" fill="#BF8FFB"/>
<path d="M276.267 307.527L276.267 329.244L257.508 340.291L258.258 318.574L276.267 307.527Z" fill="url(#paint24_radial_151_1530)" fill-opacity="0.2"/>
<path d="M258.258 318.574L257.508 340.291L238.499 328.993L238.499 307.402L258.258 318.574Z" fill="#9B70D2"/>
<path d="M256.76 277.589L291.825 298.101L258.386 318.613L221.696 297.868L256.76 277.589Z" fill="#A67ED9" fill-opacity="0.7"/>
<path d="M256.76 277.589L291.825 298.101L258.386 318.613L221.696 297.868L256.76 277.589Z" fill="url(#paint25_radial_151_1530)" fill-opacity="0.11"/>
<path d="M291.825 298.101L291.825 338.426L256.993 358.939L258.386 318.613L291.825 298.101Z" fill="#956CC9" fill-opacity="0.7"/>
<path d="M291.825 298.101L291.825 338.426L256.993 358.939L258.386 318.613L291.825 298.101Z" fill="url(#paint26_radial_151_1530)" fill-opacity="0.2"/>
<path d="M258.386 318.613L256.993 358.939L221.696 337.96L221.696 297.868L258.386 318.613Z" fill="#8454C2" fill-opacity="0.7"/>
<path d="M258.386 318.613L256.993 358.939L221.696 337.96L221.696 297.868L258.386 318.613Z" fill="url(#paint27_radial_151_1530)" fill-opacity="0.11"/>
</g>
<defs>
<filter id="filter0_f_151_1530" x="67.486" y="208.657" width="53.148" height="48.0986" filterUnits="userSpaceOnUse" color-interpolation-filters="sRGB">
<feFlood flood-opacity="0" result="BackgroundImageFix"/>
<feBlend mode="normal" in="SourceGraphic" in2="BackgroundImageFix" result="shape"/>
<feGaussianBlur stdDeviation="9.5" result="effect1_foregroundBlur_151_1530"/>
</filter>
<filter id="filter1_f_151_1530" x="459.089" y="259.15" width="53.1479" height="48.0986" filterUnits="userSpaceOnUse" color-interpolation-filters="sRGB">
<feFlood flood-opacity="0" result="BackgroundImageFix"/>
<feBlend mode="normal" in="SourceGraphic" in2="BackgroundImageFix" result="shape"/>
<feGaussianBlur stdDeviation="9.5" result="effect1_foregroundBlur_151_1530"/>
</filter>
<filter id="filter2_f_151_1530" x="146.031" y="360.136" width="53.1479" height="48.0986" filterUnits="userSpaceOnUse" color-interpolation-filters="sRGB">
<feFlood flood-opacity="0" result="BackgroundImageFix"/>
<feBlend mode="normal" in="SourceGraphic" in2="BackgroundImageFix" result="shape"/>
<feGaussianBlur stdDeviation="9.5" result="effect1_foregroundBlur_151_1530"/>
</filter>
<filter id="filter3_f_151_1530" x="301.999" y="157.602" width="53.1479" height="48.0986" filterUnits="userSpaceOnUse" color-interpolation-filters="sRGB">
<feFlood flood-opacity="0" result="BackgroundImageFix"/>
<feBlend mode="normal" in="SourceGraphic" in2="BackgroundImageFix" result="shape"/>
<feGaussianBlur stdDeviation="9.5" result="effect1_foregroundBlur_151_1530"/>
</filter>
<radialGradient id="paint0_radial_151_1530" cx="0" cy="0" r="1" gradientUnits="userSpaceOnUse" gradientTransform="translate(255 294.5) rotate(90) scale(294.5 255)">
<stop stop-color="white"/>
<stop offset="1" stop-color="white" stop-opacity="0"/>
</radialGradient>
<radialGradient id="paint1_radial_151_1530" cx="0" cy="0" r="1" gradientUnits="userSpaceOnUse" gradientTransform="translate(250.691 283.48) rotate(135) scale(288.063)">
<stop stop-color="#282D46"/>
<stop offset="1" stop-color="#282D46" stop-opacity="0"/>
</radialGradient>
<linearGradient id="paint2_linear_151_1530" x1="326.048" y1="178.005" x2="197.764" y2="132.203" gradientUnits="userSpaceOnUse">
<stop stop-color="#BF8FFB"/>
<stop offset="1" stop-color="#BF8FFB" stop-opacity="0"/>
</linearGradient>
<radialGradient id="paint3_radial_151_1530" cx="0" cy="0" r="1" gradientUnits="userSpaceOnUse" gradientTransform="translate(270.483 165.154) rotate(-126.247) scale(40.7621 23.3848)">
<stop stop-color="#BF8FFB"/>
<stop offset="1" stop-color="#BF8FFB" stop-opacity="0"/>
</radialGradient>
<linearGradient id="paint4_linear_151_1530" x1="94.3405" y1="232.706" x2="154.932" y2="221.485" gradientUnits="userSpaceOnUse">
<stop stop-color="#BF8FFB"/>
<stop offset="1" stop-color="#BF8FFB" stop-opacity="0"/>
</linearGradient>
<radialGradient id="paint5_radial_151_1530" cx="0" cy="0" r="1" gradientUnits="userSpaceOnUse" gradientTransform="translate(148.2 268.051) rotate(29.085) scale(51.3593 5.32319)">
<stop stop-color="#BF8FFB"/>
<stop offset="1" stop-color="#BF8FFB" stop-opacity="0"/>
</radialGradient>
<linearGradient id="paint6_linear_151_1530" x1="486.505" y1="283.48" x2="425.913" y2="272.259" gradientUnits="userSpaceOnUse">
<stop stop-color="#BF8FFB"/>
<stop offset="1" stop-color="#BF8FFB" stop-opacity="0"/>
</linearGradient>
<radialGradient id="paint7_radial_151_1530" cx="0" cy="0" r="1" gradientUnits="userSpaceOnUse" gradientTransform="translate(432.645 318.825) rotate(150.915) scale(51.3593 5.32319)">
<stop stop-color="#BF8FFB"/>
<stop offset="1" stop-color="#BF8FFB" stop-opacity="0"/>
</radialGradient>
<linearGradient id="paint8_linear_151_1530" x1="373.895" y1="291.456" x2="319.731" y2="261.634" gradientUnits="userSpaceOnUse">
<stop stop-color="#BF8FFB"/>
<stop offset="1" stop-color="#BF8FFB" stop-opacity="0"/>
</linearGradient>
<linearGradient id="paint9_linear_151_1530" x1="341.215" y1="422.698" x2="336.262" y2="358.111" gradientUnits="userSpaceOnUse">
<stop stop-color="#BF8FFB"/>
<stop offset="1" stop-color="#BF8FFB" stop-opacity="0"/>
</linearGradient>
<linearGradient id="paint10_linear_151_1530" x1="140.906" y1="192.312" x2="203.181" y2="192.312" gradientUnits="userSpaceOnUse">
<stop stop-color="#424257"/>
<stop offset="1" stop-color="#28283E"/>
</linearGradient>
<linearGradient id="paint11_linear_151_1530" x1="172.044" y1="178.005" x2="172.044" y2="195.958" gradientUnits="userSpaceOnUse">
<stop stop-color="#CBCBCB" stop-opacity="0"/>
<stop offset="1" stop-color="#8E8E8E"/>
</linearGradient>
<linearGradient id="paint12_linear_151_1530" x1="170.922" y1="136.208" x2="170.922" y2="175.761" gradientUnits="userSpaceOnUse">
<stop stop-color="#B87EFF" stop-opacity="0"/>
<stop offset="0.479167" stop-color="#A36DE8" stop-opacity="0.15"/>
<stop offset="1" stop-color="#6C3BA9"/>
</linearGradient>
<linearGradient id="paint13_linear_151_1530" x1="375.981" y1="242.243" x2="438.256" y2="242.243" gradientUnits="userSpaceOnUse">
<stop stop-color="#424257"/>
<stop offset="1" stop-color="#28283E"/>
</linearGradient>
<linearGradient id="paint14_linear_151_1530" x1="407.118" y1="227.937" x2="407.118" y2="245.89" gradientUnits="userSpaceOnUse">
<stop stop-color="#CBCBCB" stop-opacity="0"/>
<stop offset="1" stop-color="#8E8E8E"/>
</linearGradient>
<linearGradient id="paint15_linear_151_1530" x1="405.996" y1="186.14" x2="405.996" y2="225.693" gradientUnits="userSpaceOnUse">
<stop stop-color="#B87EFF" stop-opacity="0"/>
<stop offset="0.479167" stop-color="#A36DE8" stop-opacity="0.15"/>
<stop offset="1" stop-color="#6C3BA9"/>
</linearGradient>
<linearGradient id="paint16_linear_151_1530" x1="373.626" y1="440.676" x2="435.9" y2="441.025" gradientUnits="userSpaceOnUse">
<stop stop-color="#424257"/>
<stop offset="1" stop-color="#28283E"/>
</linearGradient>
<linearGradient id="paint17_linear_151_1530" x1="404.843" y1="426.544" x2="404.743" y2="444.497" gradientUnits="userSpaceOnUse">
<stop stop-color="#CBCBCB" stop-opacity="0"/>
<stop offset="1" stop-color="#8E8E8E"/>
</linearGradient>
<linearGradient id="paint18_linear_151_1530" x1="403.955" y1="384.741" x2="403.734" y2="424.293" gradientUnits="userSpaceOnUse">
<stop stop-color="#B87EFF" stop-opacity="0"/>
<stop offset="0.479167" stop-color="#A36DE8" stop-opacity="0.15"/>
<stop offset="1" stop-color="#6C3BA9"/>
</linearGradient>
<linearGradient id="paint19_linear_151_1530" x1="61.8005" y1="339.864" x2="124.076" y2="339.864" gradientUnits="userSpaceOnUse">
<stop stop-color="#424257"/>
<stop offset="1" stop-color="#28283E"/>
</linearGradient>
<linearGradient id="paint20_linear_151_1530" x1="92.9382" y1="325.557" x2="92.9382" y2="343.51" gradientUnits="userSpaceOnUse">
<stop stop-color="#CBCBCB" stop-opacity="0"/>
<stop offset="1" stop-color="#8E8E8E"/>
</linearGradient>
<linearGradient id="paint21_linear_151_1530" x1="91.8159" y1="283.76" x2="91.8159" y2="323.314" gradientUnits="userSpaceOnUse">
<stop stop-color="#B87EFF" stop-opacity="0"/>
<stop offset="0.479167" stop-color="#A36DE8" stop-opacity="0.15"/>
<stop offset="1" stop-color="#6C3BA9"/>
</linearGradient>
<linearGradient id="paint22_linear_151_1530" x1="173.166" y1="383.905" x2="176.873" y2="362.776" gradientUnits="userSpaceOnUse">
<stop stop-color="#BF8FFB"/>
<stop offset="1" stop-color="#BF8FFB" stop-opacity="0"/>
</linearGradient>
<linearGradient id="paint23_linear_151_1530" x1="256.528" y1="230.876" x2="256.528" y2="340.757" gradientUnits="userSpaceOnUse">
<stop stop-color="#B87EFF" stop-opacity="0"/>
<stop offset="0.193194" stop-color="#A36DE8" stop-opacity="0.15"/>
<stop offset="1" stop-color="#6C3BA9"/>
</linearGradient>
<radialGradient id="paint24_radial_151_1530" cx="0" cy="0" r="1" gradientUnits="userSpaceOnUse" gradientTransform="translate(256.76 318.264) rotate(90) scale(40.6751 35.0648)">
<stop stop-color="white" stop-opacity="0"/>
<stop offset="1" stop-color="white"/>
</radialGradient>
<radialGradient id="paint25_radial_151_1530" cx="0" cy="0" r="1" gradientUnits="userSpaceOnUse" gradientTransform="translate(270.485 334.944) rotate(119.496) scale(56.8304 79.4268)">
<stop stop-color="white" stop-opacity="0"/>
<stop offset="1" stop-color="white"/>
</radialGradient>
<radialGradient id="paint26_radial_151_1530" cx="0" cy="0" r="1" gradientUnits="userSpaceOnUse" gradientTransform="translate(256.76 318.264) rotate(90) scale(40.6751 35.0648)">
<stop stop-color="white" stop-opacity="0"/>
<stop offset="1" stop-color="white"/>
</radialGradient>
<radialGradient id="paint27_radial_151_1530" cx="0" cy="0" r="1" gradientUnits="userSpaceOnUse" gradientTransform="translate(239.567 328.274) rotate(149.908) scale(20.5097 35.2688)">
<stop stop-color="white" stop-opacity="0"/>
<stop offset="1" stop-color="white"/>
</radialGradient>
</defs>
</svg>
