<svg width="496" height="327" viewBox="0 0 496 327" fill="none" xmlns="http://www.w3.org/2000/svg">
<mask id="path-1-outside-1_151_1413" maskUnits="userSpaceOnUse" x="0" y="-0.719482" width="474" height="306" fill="black">
<rect fill="white" y="-0.719482" width="474" height="306"/>
<path d="M315.643 152.479L393.513 202.693L471.383 152.479L393.513 102.266L315.643 152.479Z"/>
<path d="M315.643 253.465L393.513 303.679L471.383 253.465L393.513 203.251L315.643 253.465Z"/>
<path d="M159.038 152.479L236.908 202.693L314.778 152.479L236.908 102.266L159.038 152.479Z"/>
<path d="M159.038 51.4943L236.908 101.708L314.778 51.4943L236.908 1.28052L159.038 51.4943Z"/>
<path d="M2.43256 51.4943L80.3025 101.708L158.172 51.4943L80.3025 1.28053L2.43256 51.4943Z"/>
<path d="M237.34 202.972L315.21 253.186L393.08 202.972L315.21 152.759L237.34 202.972Z"/>
<path d="M80.7351 202.973L158.605 253.186L236.475 202.973L158.605 152.759L80.7351 202.973Z"/>
<path d="M80.7351 101.987L158.605 152.201L236.475 101.987L158.605 51.7731L80.7351 101.987Z"/>
<path d="M159.038 253.465L236.908 303.679L314.778 253.465L236.908 203.251L159.038 253.465Z"/>
<path d="M2.43251 253.465L80.3024 303.679L158.172 253.465L80.3024 203.251L2.43251 253.465Z"/>
<path d="M2.43256 152.479L80.3025 202.693L158.172 152.479L80.3025 102.266L2.43256 152.479Z"/>
</mask>
<path d="M79.8699 101.987L80.1409 102.407L80.7925 101.987L80.1409 101.567L79.8699 101.987ZM2.27097 152.621L80.1409 102.407L79.5989 101.567L1.72903 151.78L2.27097 152.621ZM80.1409 101.567L2.27097 51.3529L1.72903 52.1933L79.5989 102.407L80.1409 101.567ZM315.643 152.479L315.101 151.639L313.798 152.479L315.101 153.32L315.643 152.479ZM393.513 202.693L392.971 203.534L393.513 203.883L394.055 203.534L393.513 202.693ZM471.383 152.479L471.925 153.32L473.228 152.479L471.925 151.639L471.383 152.479ZM393.513 102.266L394.055 101.425L393.513 101.076L392.971 101.425L393.513 102.266ZM315.643 253.465L315.101 252.625L313.798 253.465L315.101 254.306L315.643 253.465ZM393.513 303.679L392.971 304.519L393.513 304.869L394.055 304.519L393.513 303.679ZM471.383 253.465L471.925 254.306L473.228 253.465L471.925 252.625L471.383 253.465ZM393.513 203.251L394.055 202.411L393.513 202.062L392.971 202.411L393.513 203.251ZM159.038 152.479L158.496 151.639L157.193 152.479L158.496 153.32L159.038 152.479ZM236.908 202.693L236.366 203.534L236.908 203.883L237.45 203.534L236.908 202.693ZM314.778 152.479L315.32 153.32L316.623 152.479L315.32 151.639L314.778 152.479ZM236.908 102.266L237.45 101.425L236.908 101.076L236.366 101.425L236.908 102.266ZM159.038 51.4943L158.496 50.6539L157.192 51.4943L158.496 52.3347L159.038 51.4943ZM236.908 101.708L236.366 102.548L236.908 102.898L237.45 102.548L236.908 101.708ZM314.778 51.4943L315.319 52.3347L316.623 51.4943L315.319 50.6539L314.778 51.4943ZM236.908 1.28052L237.45 0.440099L236.908 0.0906349L236.366 0.440099L236.908 1.28052ZM2.43256 51.4943L1.89062 50.6539L0.587325 51.4943L1.89062 52.3347L2.43256 51.4943ZM80.3025 101.708L79.7606 102.548L80.3025 102.898L80.8444 102.548L80.3025 101.708ZM158.172 51.4943L158.714 52.3347L160.018 51.4943L158.714 50.6539L158.172 51.4943ZM80.3025 1.28053L80.8444 0.440107L80.3025 0.0906436L79.7606 0.440107L80.3025 1.28053ZM237.34 202.972L236.798 202.132L235.495 202.972L236.798 203.813L237.34 202.972ZM315.21 253.186L314.668 254.027L315.21 254.376L315.752 254.027L315.21 253.186ZM393.08 202.972L393.622 203.813L394.925 202.972L393.622 202.132L393.08 202.972ZM315.21 152.759L315.752 151.918L315.21 151.569L314.668 151.918L315.21 152.759ZM80.7351 202.973L80.1932 202.132L78.8899 202.973L80.1932 203.813L80.7351 202.973ZM158.605 253.186L158.063 254.027L158.605 254.376L159.147 254.027L158.605 253.186ZM236.475 202.973L237.017 203.813L238.32 202.973L237.017 202.132L236.475 202.973ZM158.605 152.759L159.147 151.918L158.605 151.569L158.063 151.918L158.605 152.759ZM80.7351 101.987L80.1932 101.146L78.8899 101.987L80.1932 102.827L80.7351 101.987ZM158.605 152.201L158.063 153.041L158.605 153.391L159.147 153.041L158.605 152.201ZM236.475 101.987L237.017 102.827L238.32 101.987L237.017 101.146L236.475 101.987ZM158.605 51.7731L159.147 50.9327L158.605 50.5832L158.063 50.9327L158.605 51.7731ZM159.038 253.465L158.496 252.625L157.193 253.465L158.496 254.306L159.038 253.465ZM236.908 303.679L236.366 304.519L236.908 304.869L237.45 304.519L236.908 303.679ZM314.778 253.465L315.32 254.306L316.623 253.465L315.32 252.625L314.778 253.465ZM236.908 203.251L237.45 202.411L236.908 202.062L236.366 202.411L236.908 203.251ZM2.43251 253.465L1.89057 252.625L0.587277 253.465L1.89057 254.306L2.43251 253.465ZM80.3024 303.679L79.7605 304.519L80.3024 304.869L80.8444 304.519L80.3024 303.679ZM158.172 253.465L158.714 254.306L160.018 253.465L158.714 252.625L158.172 253.465ZM80.3024 203.251L80.8444 202.411L80.3024 202.062L79.7605 202.411L80.3024 203.251ZM2.43256 152.479L1.89062 151.639L0.587325 152.479L1.89062 153.32L2.43256 152.479ZM80.3025 202.693L79.7606 203.534L80.3025 203.883L80.8444 203.534L80.3025 202.693ZM158.172 152.479L158.714 153.32L160.018 152.479L158.714 151.639L158.172 152.479ZM80.3025 102.266L80.8444 101.425L80.3025 101.076L79.7606 101.425L80.3025 102.266ZM315.101 153.32L392.971 203.534L394.055 201.853L316.185 151.639L315.101 153.32ZM394.055 203.534L471.925 153.32L470.841 151.639L392.971 201.853L394.055 203.534ZM471.925 151.639L394.055 101.425L392.971 103.106L470.841 153.32L471.925 151.639ZM392.971 101.425L315.101 151.639L316.185 153.32L394.055 103.106L392.971 101.425ZM315.101 254.306L392.971 304.519L394.055 302.839L316.185 252.625L315.101 254.306ZM394.055 304.519L471.925 254.306L470.841 252.625L392.971 302.839L394.055 304.519ZM471.925 252.625L394.055 202.411L392.971 204.092L470.841 254.306L471.925 252.625ZM392.971 202.411L315.101 252.625L316.185 254.306L394.055 204.092L392.971 202.411ZM158.496 153.32L236.366 203.534L237.45 201.853L159.58 151.639L158.496 153.32ZM237.45 203.534L315.32 153.32L314.236 151.639L236.366 201.853L237.45 203.534ZM315.32 151.639L237.45 101.425L236.366 103.106L314.236 153.32L315.32 151.639ZM236.366 101.425L158.496 151.639L159.58 153.32L237.45 103.106L236.366 101.425ZM158.496 52.3347L236.366 102.548L237.45 100.868L159.58 50.6539L158.496 52.3347ZM237.45 102.548L315.319 52.3347L314.236 50.6539L236.366 100.868L237.45 102.548ZM315.319 50.6539L237.45 0.440099L236.366 2.12094L314.236 52.3347L315.319 50.6539ZM236.366 0.440099L158.496 50.6539L159.58 52.3347L237.45 2.12094L236.366 0.440099ZM1.89062 52.3347L79.7606 102.548L80.8444 100.868L2.9745 50.6539L1.89062 52.3347ZM80.8444 102.548L158.714 52.3347L157.631 50.6539L79.7606 100.868L80.8444 102.548ZM158.714 50.6539L80.8444 0.440107L79.7606 2.12095L157.631 52.3347L158.714 50.6539ZM79.7606 0.440107L1.89062 50.6539L2.9745 52.3347L80.8444 2.12095L79.7606 0.440107ZM236.798 203.813L314.668 254.027L315.752 252.346L237.882 202.132L236.798 203.813ZM315.752 254.027L393.622 203.813L392.538 202.132L314.668 252.346L315.752 254.027ZM393.622 202.132L315.752 151.918L314.668 153.599L392.538 203.813L393.622 202.132ZM314.668 151.918L236.798 202.132L237.882 203.813L315.752 153.599L314.668 151.918ZM80.1932 203.813L158.063 254.027L159.147 252.346L81.277 202.132L80.1932 203.813ZM159.147 254.027L237.017 203.813L235.933 202.132L158.063 252.346L159.147 254.027ZM237.017 202.132L159.147 151.918L158.063 153.599L235.933 203.813L237.017 202.132ZM158.063 151.918L80.1932 202.132L81.277 203.813L159.147 153.599L158.063 151.918ZM80.1932 102.827L158.063 153.041L159.147 151.36L81.277 101.146L80.1932 102.827ZM159.147 153.041L237.017 102.827L235.933 101.146L158.063 151.36L159.147 153.041ZM237.017 101.146L159.147 50.9327L158.063 52.6135L235.933 102.827L237.017 101.146ZM158.063 50.9327L80.1932 101.146L81.277 102.827L159.147 52.6135L158.063 50.9327ZM158.496 254.306L236.366 304.519L237.45 302.839L159.58 252.625L158.496 254.306ZM237.45 304.519L315.32 254.306L314.236 252.625L236.366 302.839L237.45 304.519ZM315.32 252.625L237.45 202.411L236.366 204.092L314.236 254.306L315.32 252.625ZM236.366 202.411L158.496 252.625L159.58 254.306L237.45 204.092L236.366 202.411ZM1.89057 254.306L79.7605 304.519L80.8444 302.839L2.97445 252.625L1.89057 254.306ZM80.8444 304.519L158.714 254.306L157.63 252.625L79.7605 302.839L80.8444 304.519ZM158.714 252.625L80.8444 202.411L79.7605 204.092L157.63 254.306L158.714 252.625ZM79.7605 202.411L1.89057 252.625L2.97445 254.306L80.8444 204.092L79.7605 202.411ZM1.89062 153.32L79.7606 203.534L80.8444 201.853L2.9745 151.639L1.89062 153.32ZM80.8444 203.534L158.714 153.32L157.631 151.639L79.7606 201.853L80.8444 203.534ZM158.714 151.639L80.8444 101.425L79.7606 103.106L157.631 153.32L158.714 151.639ZM79.7606 101.425L1.89062 151.639L2.9745 153.32L80.8444 103.106L79.7606 101.425Z" fill="url(#paint0_radial_151_1413)" mask="url(#path-1-outside-1_151_1413)"/>
<path d="M184.132 34.9427L236.87 1L314.854 51.2127" stroke="url(#paint1_linear_151_1413)"/>
<path d="M184.132 34.9427L236.87 1L314.854 51.2127" stroke="url(#paint2_radial_151_1413)"/>
<path d="M131.114 69.4465L80.3405 101.987L188.62 171.836" stroke="url(#paint3_linear_151_1413)"/>
<path d="M131.114 69.4465L80.3405 101.987L188.62 171.836" stroke="url(#paint4_radial_151_1413)"/>
<path d="M420.328 119.098L471.944 152.48L364.505 221.768" stroke="url(#paint5_linear_151_1413)"/>
<path d="M420.328 119.098L471.944 152.48L364.505 221.768" stroke="url(#paint6_radial_151_1413)"/>
<path d="M366.749 119.098L277.601 176.972" stroke="url(#paint7_linear_151_1413)"/>
<path d="M378.812 294.422L263.799 220.365" stroke="url(#paint8_linear_151_1413)"/>
<ellipse cx="80.3405" cy="102.267" rx="1.68311" ry="1.12207" fill="#BA8CF4"/>
<path d="M85.1399 102.267C85.1399 103.087 84.6413 103.86 83.7723 104.439C82.905 105.018 81.6924 105.383 80.3406 105.383C78.9887 105.383 77.7761 105.018 76.9088 104.439C76.0398 103.86 75.5412 103.087 75.5412 102.267C75.5412 101.447 76.0398 100.674 76.9088 100.095C77.7761 99.5166 78.9887 99.1509 80.3406 99.1509C81.6924 99.1509 82.905 99.5166 83.7723 100.095C84.6413 100.674 85.1399 101.447 85.1399 102.267Z" stroke="#B27DF5" stroke-width="0.5"/>
<g opacity="0.23" filter="url(#filter0_f_151_1413)">
<ellipse cx="80.06" cy="101.706" rx="7.57399" ry="5.04932" fill="#BF8FFB"/>
</g>
<ellipse cx="1.68311" cy="1.12207" rx="1.68311" ry="1.12207" transform="matrix(-1 0 0 1 473.066 151.638)" fill="#BA8CF4"/>
<path d="M466.583 152.76C466.583 153.58 467.082 154.353 467.951 154.933C468.818 155.511 470.031 155.876 471.383 155.876C472.734 155.876 473.947 155.511 474.814 154.933C475.683 154.353 476.182 153.58 476.182 152.76C476.182 151.94 475.683 151.167 474.814 150.588C473.947 150.01 472.734 149.644 471.383 149.644C470.031 149.644 468.818 150.01 467.951 150.588C467.082 151.167 466.583 151.94 466.583 152.76Z" stroke="#B27DF5" stroke-width="0.5"/>
<g opacity="0.23" filter="url(#filter1_f_151_1413)">
<ellipse cx="7.57399" cy="5.04932" rx="7.57399" ry="5.04932" transform="matrix(-1 0 0 1 479.237 147.15)" fill="#BF8FFB"/>
</g>
<ellipse cx="158.886" cy="253.746" rx="1.68311" ry="1.12207" fill="#BA8CF4"/>
<path d="M163.685 253.747C163.685 254.567 163.186 255.339 162.317 255.919C161.45 256.497 160.237 256.863 158.886 256.863C157.534 256.863 156.321 256.497 155.454 255.919C154.585 255.339 154.086 254.567 154.086 253.747C154.086 252.927 154.585 252.154 155.454 251.574C156.321 250.996 157.534 250.63 158.886 250.63C160.237 250.63 161.45 250.996 162.317 251.574C163.186 252.154 163.685 252.927 163.685 253.747Z" stroke="#B27DF5" stroke-width="0.5"/>
<g opacity="0.23" filter="url(#filter2_f_151_1413)">
<ellipse cx="158.605" cy="253.186" rx="7.57399" ry="5.04932" fill="#BF8FFB"/>
</g>
<ellipse cx="314.854" cy="51.2126" rx="1.68311" ry="1.12207" fill="#BA8CF4"/>
<path d="M319.653 51.2127C319.653 52.0326 319.154 52.8055 318.285 53.3849C317.418 53.9631 316.206 54.3289 314.854 54.3289C313.502 54.3289 312.289 53.9631 311.422 53.3849C310.553 52.8055 310.054 52.0326 310.054 51.2127C310.054 50.3927 310.553 49.6198 311.422 49.0404C312.289 48.4622 313.502 48.0964 314.854 48.0964C316.206 48.0964 317.418 48.4622 318.285 49.0404C319.154 49.6198 319.653 50.3927 319.653 51.2127Z" stroke="#B27DF5" stroke-width="0.5"/>
<g opacity="0.23" filter="url(#filter3_f_151_1413)">
<ellipse cx="314.573" cy="50.6516" rx="7.57399" ry="5.04932" fill="#BF8FFB"/>
</g>
<path d="M189.181 58.5071C189.181 69.5068 179.644 77.8622 158.044 77.8622C136.444 77.8622 126.906 69.5068 126.906 58.5071C126.906 47.5074 126.906 44.4812 126.906 44.4812L189.181 44.4812C189.181 44.4812 189.181 52.7097 189.181 58.5071Z" fill="url(#paint9_linear_151_1413)"/>
<path d="M188.932 45.0413C188.932 50.4267 185.519 55.3373 179.927 58.914C174.338 62.4888 166.602 64.7081 158.044 64.7081C149.486 64.7081 141.75 62.4888 136.161 58.914C130.57 55.3373 127.157 50.4267 127.157 45.0413C127.157 39.6559 130.57 34.7452 136.161 31.1686C141.75 27.5938 149.486 25.3745 158.044 25.3745C166.602 25.3745 174.338 27.5938 179.927 31.1686C185.519 34.7452 188.932 39.6559 188.932 45.0413Z" fill="#2E2E43" stroke="url(#paint10_linear_151_1413)" stroke-width="0.5"/>
<path d="M137.847 5.20776L147.665 44.7608H168.423L175.997 5.20776H137.847Z" fill="url(#paint11_linear_151_1413)"/>
<ellipse cx="158.044" cy="44.7608" rx="10.3792" ry="6.73243" fill="#BF8FFB"/>
<ellipse cx="158.325" cy="70.8491" rx="2.24414" ry="2.52466" fill="#BF8FFB"/>
<path d="M137.566 64.958C137.566 66.1974 136.628 67.2022 135.472 67.2022C134.315 67.2022 133.639 66.1974 133.639 64.958C133.639 63.7186 134.577 62.7139 135.733 62.7139C136.89 62.7139 137.566 63.7186 137.566 64.958Z" fill="#BF8FFB"/>
<path d="M179.083 64.958C179.083 66.1974 180.021 67.2022 181.177 67.2022C182.334 67.2022 183.01 66.1974 183.01 64.958C183.01 63.7186 182.072 62.7139 180.916 62.7139C179.759 62.7139 179.083 63.7186 179.083 64.958Z" fill="#BF8FFB"/>
<path d="M424.256 108.439C424.256 119.439 414.718 127.794 393.118 127.794C371.518 127.794 361.981 119.439 361.981 108.439C361.981 97.4393 361.981 94.4131 361.981 94.4131L424.256 94.4131C424.256 94.4131 424.256 102.642 424.256 108.439Z" fill="url(#paint12_linear_151_1413)"/>
<path d="M424.006 94.9734C424.006 100.359 420.593 105.269 415.001 108.846C409.412 112.421 401.676 114.64 393.118 114.64C384.56 114.64 376.824 112.421 371.235 108.846C365.644 105.269 362.231 100.359 362.231 94.9734C362.231 89.5881 365.644 84.6774 371.235 81.1007C376.824 77.5259 384.56 75.3066 393.118 75.3066C401.676 75.3066 409.412 77.5259 415.001 81.1007C420.593 84.6774 424.006 89.5881 424.006 94.9734Z" fill="#2E2E43" stroke="url(#paint13_linear_151_1413)" stroke-width="0.5"/>
<path d="M372.921 55.1399L382.739 94.6929H403.497L411.071 55.1399H372.921Z" fill="url(#paint14_linear_151_1413)"/>
<ellipse cx="393.118" cy="94.6931" rx="10.3792" ry="6.73243" fill="#BF8FFB"/>
<ellipse cx="393.399" cy="120.781" rx="2.24414" ry="2.52466" fill="#BF8FFB"/>
<path d="M372.64 114.89C372.64 116.13 371.703 117.135 370.546 117.135C369.389 117.135 368.713 116.13 368.713 114.89C368.713 113.651 369.651 112.646 370.808 112.646C371.964 112.646 372.64 113.651 372.64 114.89Z" fill="#BF8FFB"/>
<path d="M414.157 114.89C414.157 116.13 415.095 117.135 416.252 117.135C417.408 117.135 418.084 116.13 418.084 114.89C418.084 113.651 417.147 112.646 415.99 112.646C414.833 112.646 414.157 113.651 414.157 114.89Z" fill="#BF8FFB"/>
<path d="M421.916 307.22C421.854 318.22 412.27 326.522 390.67 326.401C369.071 326.28 359.58 317.871 359.642 306.871C359.704 295.872 359.72 292.846 359.72 292.846L421.994 293.195C421.994 293.195 421.948 301.423 421.916 307.22Z" fill="url(#paint15_linear_151_1413)"/>
<path d="M421.742 293.754C421.711 299.139 418.271 304.03 412.659 307.576C407.05 311.119 399.302 313.295 390.744 313.247C382.186 313.199 374.463 310.936 368.894 307.33C363.323 303.722 359.937 298.793 359.967 293.407C359.998 288.022 363.438 283.131 369.05 279.585C374.659 276.042 382.407 273.866 390.965 273.914C399.523 273.962 407.246 276.225 412.815 279.831C418.386 283.439 421.772 288.368 421.742 293.754Z" fill="#2E2E43" stroke="url(#paint16_linear_151_1413)" stroke-width="0.5"/>
<path d="M370.881 253.634L380.477 293.241L401.235 293.358L409.03 253.848L370.881 253.634Z" fill="url(#paint17_linear_151_1413)"/>
<ellipse cx="390.856" cy="293.3" rx="10.3792" ry="6.73243" transform="rotate(0.321083 390.856 293.3)" fill="#BF8FFB"/>
<ellipse cx="390.99" cy="319.389" rx="2.24414" ry="2.52466" transform="rotate(0.321083 390.99 319.389)" fill="#BF8FFB"/>
<path d="M370.265 313.382C370.258 314.622 369.315 315.621 368.158 315.615C367.001 315.608 366.331 314.6 366.338 313.36C366.345 312.121 367.288 311.121 368.445 311.128C369.602 311.134 370.272 312.143 370.265 313.382Z" fill="#BF8FFB"/>
<path d="M411.781 313.614C411.774 314.854 412.706 315.864 413.863 315.87C415.02 315.877 415.701 314.876 415.708 313.636C415.715 312.397 414.783 311.387 413.627 311.381C412.47 311.374 411.788 312.375 411.781 313.614Z" fill="#BF8FFB"/>
<path d="M110.076 206.059C110.076 217.059 100.538 225.414 78.938 225.414C57.3381 225.414 47.8005 217.059 47.8005 206.059C47.8005 195.059 47.8005 192.033 47.8005 192.033L110.076 192.033C110.076 192.033 110.076 200.262 110.076 206.059Z" fill="url(#paint18_linear_151_1413)"/>
<path d="M109.826 192.594C109.826 197.979 106.413 202.89 100.821 206.466C95.2322 210.041 87.4961 212.26 78.9382 212.26C70.3802 212.26 62.6442 210.041 57.0553 206.466C51.4637 202.89 48.0507 197.979 48.0507 192.594C48.0507 187.208 51.4637 182.297 57.0553 178.721C62.6442 175.146 70.3802 172.927 78.9382 172.927C87.4961 172.927 95.2322 175.146 100.821 178.721C106.413 182.297 109.826 187.208 109.826 192.594Z" fill="#2E2E43" stroke="url(#paint19_linear_151_1413)" stroke-width="0.5"/>
<path d="M58.7407 152.76L68.5589 192.314H89.3172L96.8912 152.76H58.7407Z" fill="url(#paint20_linear_151_1413)"/>
<ellipse cx="78.938" cy="192.313" rx="10.3792" ry="6.73243" fill="#B27DF5"/>
<ellipse cx="79.2185" cy="218.401" rx="2.24414" ry="2.52466" fill="#BF8FFB"/>
<path d="M58.4602 212.511C58.4602 213.75 57.5224 214.755 56.3656 214.755C55.2089 214.755 54.5329 213.75 54.5329 212.511C54.5329 211.271 55.4707 210.266 56.6275 210.266C57.7842 210.266 58.4602 211.271 58.4602 212.511Z" fill="#BF8FFB"/>
<path d="M99.9768 212.511C99.9768 213.75 100.915 214.755 102.071 214.755C103.228 214.755 103.904 213.75 103.904 212.511C103.904 211.271 102.966 210.266 101.81 210.266C100.653 210.266 99.9768 211.271 99.9768 212.511Z" fill="#BF8FFB"/>
<path d="M110.636 222.609L158.605 253.466L202.085 225.414" stroke="url(#paint21_linear_151_1413)"/>
<path d="M207.696 82.0696H277.825V207.648L242.993 228.5L207.696 207.414V82.0696Z" fill="url(#paint22_linear_151_1413)"/>
<path d="M243.383 165.48L262.267 176.527L244.258 187.574L224.499 176.402L243.383 165.48Z" fill="#B487EE"/>
<path d="M262.267 176.527L262.267 198.244L243.508 209.291L244.258 187.574L262.267 176.527Z" fill="#BF8FFB"/>
<path d="M262.267 176.527L262.267 198.244L243.508 209.291L244.258 187.574L262.267 176.527Z" fill="url(#paint23_radial_151_1413)" fill-opacity="0.2"/>
<path d="M244.258 187.574L243.508 209.291L224.499 197.993L224.499 176.402L244.258 187.574Z" fill="#9B70D2"/>
<path d="M242.76 146.589L277.825 167.101L244.386 187.613L207.696 166.868L242.76 146.589Z" fill="#A67ED9" fill-opacity="0.7"/>
<path d="M242.76 146.589L277.825 167.101L244.386 187.613L207.696 166.868L242.76 146.589Z" fill="url(#paint24_radial_151_1413)" fill-opacity="0.11"/>
<path d="M277.825 167.101L277.825 207.426L242.993 227.939L244.386 187.613L277.825 167.101Z" fill="#956CC9" fill-opacity="0.7"/>
<path d="M277.825 167.101L277.825 207.426L242.993 227.939L244.386 187.613L277.825 167.101Z" fill="url(#paint25_radial_151_1413)" fill-opacity="0.2"/>
<path d="M244.386 187.613L242.993 227.939L207.696 206.96L207.696 166.868L244.386 187.613Z" fill="#8454C2" fill-opacity="0.7"/>
<path d="M244.386 187.613L242.993 227.939L207.696 206.96L207.696 166.868L244.386 187.613Z" fill="url(#paint26_radial_151_1413)" fill-opacity="0.11"/>
<defs>
<filter id="filter0_f_151_1413" x="53.486" y="77.6567" width="53.148" height="48.0986" filterUnits="userSpaceOnUse" color-interpolation-filters="sRGB">
<feFlood flood-opacity="0" result="BackgroundImageFix"/>
<feBlend mode="normal" in="SourceGraphic" in2="BackgroundImageFix" result="shape"/>
<feGaussianBlur stdDeviation="9.5" result="effect1_foregroundBlur_151_1413"/>
</filter>
<filter id="filter1_f_151_1413" x="445.089" y="128.15" width="53.1479" height="48.0986" filterUnits="userSpaceOnUse" color-interpolation-filters="sRGB">
<feFlood flood-opacity="0" result="BackgroundImageFix"/>
<feBlend mode="normal" in="SourceGraphic" in2="BackgroundImageFix" result="shape"/>
<feGaussianBlur stdDeviation="9.5" result="effect1_foregroundBlur_151_1413"/>
</filter>
<filter id="filter2_f_151_1413" x="132.031" y="229.136" width="53.1479" height="48.0986" filterUnits="userSpaceOnUse" color-interpolation-filters="sRGB">
<feFlood flood-opacity="0" result="BackgroundImageFix"/>
<feBlend mode="normal" in="SourceGraphic" in2="BackgroundImageFix" result="shape"/>
<feGaussianBlur stdDeviation="9.5" result="effect1_foregroundBlur_151_1413"/>
</filter>
<filter id="filter3_f_151_1413" x="287.999" y="26.6023" width="53.1479" height="48.0986" filterUnits="userSpaceOnUse" color-interpolation-filters="sRGB">
<feFlood flood-opacity="0" result="BackgroundImageFix"/>
<feBlend mode="normal" in="SourceGraphic" in2="BackgroundImageFix" result="shape"/>
<feGaussianBlur stdDeviation="9.5" result="effect1_foregroundBlur_151_1413"/>
</filter>
<radialGradient id="paint0_radial_151_1413" cx="0" cy="0" r="1" gradientUnits="userSpaceOnUse" gradientTransform="translate(236.691 152.48) rotate(135) scale(288.063)">
<stop stop-color="#282D46"/>
<stop offset="1" stop-color="#282D46" stop-opacity="0"/>
</radialGradient>
<linearGradient id="paint1_linear_151_1413" x1="312.048" y1="47.005" x2="183.764" y2="1.20269" gradientUnits="userSpaceOnUse">
<stop stop-color="#BF8FFB"/>
<stop offset="1" stop-color="#BF8FFB" stop-opacity="0"/>
</linearGradient>
<radialGradient id="paint2_radial_151_1413" cx="0" cy="0" r="1" gradientUnits="userSpaceOnUse" gradientTransform="translate(256.483 34.1542) rotate(-126.247) scale(40.7621 23.3848)">
<stop stop-color="#BF8FFB"/>
<stop offset="1" stop-color="#BF8FFB" stop-opacity="0"/>
</radialGradient>
<linearGradient id="paint3_linear_151_1413" x1="80.3405" y1="101.706" x2="140.932" y2="90.4854" gradientUnits="userSpaceOnUse">
<stop stop-color="#BF8FFB"/>
<stop offset="1" stop-color="#BF8FFB" stop-opacity="0"/>
</linearGradient>
<radialGradient id="paint4_radial_151_1413" cx="0" cy="0" r="1" gradientUnits="userSpaceOnUse" gradientTransform="translate(134.2 137.051) rotate(29.085) scale(51.3593 5.32319)">
<stop stop-color="#BF8FFB"/>
<stop offset="1" stop-color="#BF8FFB" stop-opacity="0"/>
</radialGradient>
<linearGradient id="paint5_linear_151_1413" x1="472.505" y1="152.48" x2="411.913" y2="141.259" gradientUnits="userSpaceOnUse">
<stop stop-color="#BF8FFB"/>
<stop offset="1" stop-color="#BF8FFB" stop-opacity="0"/>
</linearGradient>
<radialGradient id="paint6_radial_151_1413" cx="0" cy="0" r="1" gradientUnits="userSpaceOnUse" gradientTransform="translate(418.645 187.825) rotate(150.915) scale(51.3593 5.32319)">
<stop stop-color="#BF8FFB"/>
<stop offset="1" stop-color="#BF8FFB" stop-opacity="0"/>
</radialGradient>
<linearGradient id="paint7_linear_151_1413" x1="359.895" y1="160.456" x2="305.731" y2="130.634" gradientUnits="userSpaceOnUse">
<stop stop-color="#BF8FFB"/>
<stop offset="1" stop-color="#BF8FFB" stop-opacity="0"/>
</linearGradient>
<linearGradient id="paint8_linear_151_1413" x1="327.215" y1="291.698" x2="322.262" y2="227.111" gradientUnits="userSpaceOnUse">
<stop stop-color="#BF8FFB"/>
<stop offset="1" stop-color="#BF8FFB" stop-opacity="0"/>
</linearGradient>
<linearGradient id="paint9_linear_151_1413" x1="126.906" y1="61.3116" x2="189.181" y2="61.3116" gradientUnits="userSpaceOnUse">
<stop stop-color="#424257"/>
<stop offset="1" stop-color="#28283E"/>
</linearGradient>
<linearGradient id="paint10_linear_151_1413" x1="158.044" y1="47.0049" x2="158.044" y2="64.9581" gradientUnits="userSpaceOnUse">
<stop stop-color="#CBCBCB" stop-opacity="0"/>
<stop offset="1" stop-color="#8E8E8E"/>
</linearGradient>
<linearGradient id="paint11_linear_151_1413" x1="156.922" y1="5.20776" x2="156.922" y2="44.7608" gradientUnits="userSpaceOnUse">
<stop stop-color="#B87EFF" stop-opacity="0"/>
<stop offset="0.479167" stop-color="#A36DE8" stop-opacity="0.15"/>
<stop offset="1" stop-color="#6C3BA9"/>
</linearGradient>
<linearGradient id="paint12_linear_151_1413" x1="361.981" y1="111.243" x2="424.256" y2="111.243" gradientUnits="userSpaceOnUse">
<stop stop-color="#424257"/>
<stop offset="1" stop-color="#28283E"/>
</linearGradient>
<linearGradient id="paint13_linear_151_1413" x1="393.118" y1="96.937" x2="393.118" y2="114.89" gradientUnits="userSpaceOnUse">
<stop stop-color="#CBCBCB" stop-opacity="0"/>
<stop offset="1" stop-color="#8E8E8E"/>
</linearGradient>
<linearGradient id="paint14_linear_151_1413" x1="391.996" y1="55.1399" x2="391.996" y2="94.6929" gradientUnits="userSpaceOnUse">
<stop stop-color="#B87EFF" stop-opacity="0"/>
<stop offset="0.479167" stop-color="#A36DE8" stop-opacity="0.15"/>
<stop offset="1" stop-color="#6C3BA9"/>
</linearGradient>
<linearGradient id="paint15_linear_151_1413" x1="359.626" y1="309.676" x2="421.9" y2="310.025" gradientUnits="userSpaceOnUse">
<stop stop-color="#424257"/>
<stop offset="1" stop-color="#28283E"/>
</linearGradient>
<linearGradient id="paint16_linear_151_1413" x1="390.843" y1="295.544" x2="390.743" y2="313.497" gradientUnits="userSpaceOnUse">
<stop stop-color="#CBCBCB" stop-opacity="0"/>
<stop offset="1" stop-color="#8E8E8E"/>
</linearGradient>
<linearGradient id="paint17_linear_151_1413" x1="389.955" y1="253.741" x2="389.734" y2="293.293" gradientUnits="userSpaceOnUse">
<stop stop-color="#B87EFF" stop-opacity="0"/>
<stop offset="0.479167" stop-color="#A36DE8" stop-opacity="0.15"/>
<stop offset="1" stop-color="#6C3BA9"/>
</linearGradient>
<linearGradient id="paint18_linear_151_1413" x1="47.8005" y1="208.864" x2="110.076" y2="208.864" gradientUnits="userSpaceOnUse">
<stop stop-color="#424257"/>
<stop offset="1" stop-color="#28283E"/>
</linearGradient>
<linearGradient id="paint19_linear_151_1413" x1="78.9382" y1="194.557" x2="78.9382" y2="212.51" gradientUnits="userSpaceOnUse">
<stop stop-color="#CBCBCB" stop-opacity="0"/>
<stop offset="1" stop-color="#8E8E8E"/>
</linearGradient>
<linearGradient id="paint20_linear_151_1413" x1="77.8159" y1="152.76" x2="77.8159" y2="192.314" gradientUnits="userSpaceOnUse">
<stop stop-color="#B87EFF" stop-opacity="0"/>
<stop offset="0.479167" stop-color="#A36DE8" stop-opacity="0.15"/>
<stop offset="1" stop-color="#6C3BA9"/>
</linearGradient>
<linearGradient id="paint21_linear_151_1413" x1="159.166" y1="252.905" x2="162.873" y2="231.776" gradientUnits="userSpaceOnUse">
<stop stop-color="#BF8FFB"/>
<stop offset="1" stop-color="#BF8FFB" stop-opacity="0"/>
</linearGradient>
<linearGradient id="paint22_linear_151_1413" x1="242.528" y1="99.8755" x2="242.528" y2="209.757" gradientUnits="userSpaceOnUse">
<stop stop-color="#B87EFF" stop-opacity="0"/>
<stop offset="0.193194" stop-color="#A36DE8" stop-opacity="0.15"/>
<stop offset="1" stop-color="#6C3BA9"/>
</linearGradient>
<radialGradient id="paint23_radial_151_1413" cx="0" cy="0" r="1" gradientUnits="userSpaceOnUse" gradientTransform="translate(242.76 187.264) rotate(90) scale(40.6751 35.0648)">
<stop stop-color="white" stop-opacity="0"/>
<stop offset="1" stop-color="white"/>
</radialGradient>
<radialGradient id="paint24_radial_151_1413" cx="0" cy="0" r="1" gradientUnits="userSpaceOnUse" gradientTransform="translate(256.485 203.944) rotate(119.496) scale(56.8304 79.4268)">
<stop stop-color="white" stop-opacity="0"/>
<stop offset="1" stop-color="white"/>
</radialGradient>
<radialGradient id="paint25_radial_151_1413" cx="0" cy="0" r="1" gradientUnits="userSpaceOnUse" gradientTransform="translate(242.76 187.264) rotate(90) scale(40.6751 35.0648)">
<stop stop-color="white" stop-opacity="0"/>
<stop offset="1" stop-color="white"/>
</radialGradient>
<radialGradient id="paint26_radial_151_1413" cx="0" cy="0" r="1" gradientUnits="userSpaceOnUse" gradientTransform="translate(225.567 197.274) rotate(149.908) scale(20.5097 35.2688)">
<stop stop-color="white" stop-opacity="0"/>
<stop offset="1" stop-color="white"/>
</radialGradient>
</defs>
</svg>
