<svg width="20" height="20" viewBox="0 0 20 20" fill="none" xmlns="http://www.w3.org/2000/svg">
<path d="M17.207 2.7285L10.9609 7.36755L12.116 4.63057L17.207 2.7285Z" fill="#E2761B" stroke="#E2761B" stroke-linecap="round" stroke-linejoin="round"/>
<path d="M2.78706 2.7285L8.98292 7.41149L7.88436 4.63057L2.78706 2.7285ZM14.9591 13.4818L13.2955 16.0304L16.8549 17.0097L17.8781 13.5383L14.9591 13.4818ZM2.12793 13.5383L3.14488 17.0097L6.7042 16.0304L5.04067 13.4818L2.12793 13.5383Z" fill="#E4761B" stroke="#E4761B" stroke-linecap="round" stroke-linejoin="round"/>
<path d="M6.50356 9.17545L5.51172 10.6758L9.04593 10.8327L8.92038 7.03484L6.50356 9.17545ZM13.4904 9.17545L11.0422 6.9909L10.9606 10.8327L14.4885 10.6758L13.4904 9.17545ZM6.70444 16.0304L8.82622 14.9947L6.9932 13.5634L6.70444 16.0304ZM11.1677 14.9947L13.2958 16.0304L13.0007 13.5634L11.1677 14.9947Z" fill="#E4761B" stroke="#E4761B" stroke-linecap="round" stroke-linejoin="round"/>
<path d="M13.2954 16.0304L11.1674 14.9947L11.3369 16.382L11.318 16.9658L13.2954 16.0304ZM6.7041 16.0304L8.6815 16.9658L8.66895 16.382L8.82588 14.9947L6.7041 16.0304Z" fill="#D7C1B3" stroke="#D7C1B3" stroke-linecap="round" stroke-linejoin="round"/>
<path d="M8.7136 12.6469L6.94336 12.1259L8.19257 11.5546L8.7136 12.6469ZM11.2811 12.6469L11.8021 11.5546L13.0576 12.1259L11.2811 12.6469Z" fill="#233447" stroke="#233447" stroke-linecap="round" stroke-linejoin="round"/>
<path d="M6.70454 16.0304L7.00586 13.4818L5.04102 13.5383L6.70454 16.0304ZM12.9946 13.4818L13.2959 16.0304L14.9594 13.5383L12.9946 13.4818ZM14.4886 10.6758L10.9607 10.8327L11.2871 12.6469L11.8081 11.5546L13.0636 12.1259L14.4886 10.6758ZM6.94309 12.1259L8.19858 11.5546L8.71333 12.6469L9.04604 10.8327L5.51183 10.6758L6.94309 12.1259Z" fill="#CD6116" stroke="#CD6116" stroke-linecap="round" stroke-linejoin="round"/>
<path d="M5.51172 10.6758L6.9932 13.5634L6.94298 12.1259L5.51172 10.6758ZM13.0635 12.1259L13.0007 13.5634L14.4885 10.6758L13.0635 12.1259ZM9.04593 10.8327L8.71322 12.6469L9.12754 14.7875L9.2217 11.9689L9.04593 10.8327ZM10.9606 10.8327L10.7911 11.9626L10.8664 14.7875L11.287 12.6469L10.9606 10.8327Z" fill="#E4751F" stroke="#E4751F" stroke-linecap="round" stroke-linejoin="round"/>
<path d="M11.2874 12.6469L10.8668 14.7875L11.1681 14.9947L13.0011 13.5634L13.0639 12.1259L11.2874 12.6469ZM6.94336 12.1259L6.99358 13.5634L8.8266 14.9947L9.12792 14.7875L8.7136 12.6469L6.94336 12.1259Z" fill="#F6851B" stroke="#F6851B" stroke-linecap="round" stroke-linejoin="round"/>
<path d="M11.318 16.9658L11.3369 16.382L11.1799 16.2439H8.81333L8.66895 16.382L8.6815 16.9658L6.7041 16.0304L7.39462 16.5954L8.7945 17.5684H11.1988L12.6049 16.5954L13.2954 16.0304L11.318 16.9658Z" fill="#C0AD9E" stroke="#C0AD9E" stroke-linecap="round" stroke-linejoin="round"/>
<path d="M11.1674 14.9947L10.8661 14.7875H9.1272L8.82588 14.9947L8.66895 16.382L8.81333 16.2439H11.1799L11.3369 16.382L11.1674 14.9947Z" fill="#161616" stroke="#161616" stroke-linecap="round" stroke-linejoin="round"/>
<path d="M17.47 7.66886L18.0036 5.10766L17.2064 2.7285L11.1675 7.21061L13.4901 9.17546L16.7732 10.1359L17.5014 9.28845L17.1876 9.06246L17.6898 8.60421L17.3006 8.30289L17.8027 7.91996L17.47 7.66886ZM1.99609 5.10766L2.52968 7.66886L2.1907 7.91996L2.69289 8.30289L2.30997 8.60421L2.81216 9.06246L2.49829 9.28845L3.2202 10.1359L6.50331 9.17546L8.82597 7.21061L2.78705 2.7285L1.99609 5.10766Z" fill="#763D16" stroke="#763D16" stroke-linecap="round" stroke-linejoin="round"/>
<path d="M16.7733 10.1359L13.4901 9.17545L14.4883 10.6758L13.0005 13.5634L14.9591 13.5383H17.8781L16.7733 10.1359ZM6.50332 9.17545L3.22021 10.1359L2.12793 13.5383H5.04067L6.99296 13.5634L5.51148 10.6758L6.50332 9.17545ZM10.9603 10.8327L11.1675 7.21061L12.1217 4.63057H7.88436L8.82598 7.21061L9.04569 10.8327L9.12102 11.9752L9.1273 14.7875H10.8662L10.8787 11.9752L10.9603 10.8327Z" fill="#F6851B" stroke="#F6851B" stroke-linecap="round" stroke-linejoin="round"/>
</svg>
