<svg width="1297" height="748" viewBox="0 0 1297 748" fill="none" xmlns="http://www.w3.org/2000/svg">
<rect y="0.499967" width="100.18" height="100.18" transform="matrix(-0.866044 -0.499967 0.866044 -0.499967 949.179 399.098)" stroke="#3C404B" stroke-opacity="0.34"/>
<rect y="0.499967" width="100.18" height="100.18" transform="matrix(-0.866044 -0.499967 0.866044 -0.499967 949.179 299.374)" stroke="#3C404B" stroke-opacity="0.34"/>
<rect y="0.499967" width="100.18" height="100.18" transform="matrix(-0.866044 -0.499967 0.866044 -0.499967 776.436 498.823)" stroke="#3C404B" stroke-opacity="0.34"/>
<rect y="0.499967" width="100.18" height="100.18" transform="matrix(-0.866044 -0.499967 0.866044 -0.499967 949.179 498.823)" stroke="#3C404B" stroke-opacity="0.34"/>
<rect y="0.499967" width="100.18" height="100.18" transform="matrix(-0.866044 -0.499967 0.866044 -0.499967 1035.55 448.961)" stroke="#3C404B" stroke-opacity="0.34"/>
<rect y="0.499967" width="100.18" height="100.18" transform="matrix(-0.866044 -0.499967 0.866044 -0.499967 949.179 598.548)" stroke="#3C404B" stroke-opacity="0.34"/>
<rect x="-0.866044" width="100.18" height="100.18" transform="matrix(0.866044 0.499967 0.866044 -0.499967 172.627 249.47)" stroke="#3C404B" stroke-opacity="0.34"/>
<rect y="0.499967" width="100.18" height="100.18" transform="matrix(-0.866044 -0.499967 0.866044 -0.499967 690.064 548.686)" stroke="#3C404B" stroke-opacity="0.34"/>
<rect y="0.499967" width="100.18" height="100.18" transform="matrix(-0.866044 -0.499967 0.866044 -0.499967 862.807 548.686)" stroke="#3C404B" stroke-opacity="0.34"/>
<rect y="0.499967" width="100.18" height="100.18" transform="matrix(-0.866044 -0.499967 0.866044 -0.499967 1035.55 548.686)" stroke="#3C404B" stroke-opacity="0.34"/>
<rect y="0.499967" width="100.18" height="100.18" transform="matrix(-0.866044 -0.499967 0.866044 -0.499967 1208.29 448.961)" stroke="#3C404B" stroke-opacity="0.34"/>
<rect y="0.499967" width="100.18" height="100.18" transform="matrix(-0.866044 -0.499967 0.866044 -0.499967 603.692 498.823)" stroke="#3C404B" stroke-opacity="0.34"/>
<rect x="-0.866044" width="100.18" height="100.18" transform="matrix(0.866044 0.499967 0.866044 -0.499967 172.627 349.194)" stroke="#3C404B" stroke-opacity="0.34"/>
<rect x="-0.866044" width="100.18" height="100.18" transform="matrix(0.866044 0.499967 0.866044 -0.499967 258.999 399.057)" stroke="#3C404B" stroke-opacity="0.34"/>
<rect x="-0.866044" width="100.18" height="100.18" transform="matrix(0.866044 0.499967 0.866044 -0.499967 345.371 448.919)" stroke="#3C404B" stroke-opacity="0.34"/>
<rect y="0.499967" width="100.18" height="100.18" transform="matrix(-0.866044 -0.499967 0.866044 -0.499967 517.32 548.686)" stroke="#3C404B" stroke-opacity="0.34"/>
<rect x="-0.866044" width="100.18" height="100.18" transform="matrix(0.866044 0.499967 0.866044 -0.499967 172.628 448.919)" stroke="#3C404B" stroke-opacity="0.34"/>
<rect y="0.499967" width="100.18" height="100.18" transform="matrix(-0.866044 -0.499967 0.866044 -0.499967 344.577 548.686)" stroke="#3C404B" stroke-opacity="0.34"/>
<rect y="0.499967" width="100.18" height="100.18" transform="matrix(-0.866044 -0.499967 0.866044 -0.499967 603.692 598.548)" stroke="#3C404B" stroke-opacity="0.34"/>
<rect y="0.499967" width="100.18" height="100.18" transform="matrix(-0.866044 -0.499967 0.866044 -0.499967 776.436 598.548)" stroke="#3C404B" stroke-opacity="0.34"/>
<path d="M171.836 432.95C174.354 431.823 177.219 431.796 179.763 432.865L209.342 445.288V450.162L181.331 469.481C177.974 471.797 173.547 471.842 170.144 469.595L142.082 451.07C142.082 451.07 142.082 447.529 142.082 446.857C142.082 446.329 162.942 436.932 171.836 432.95Z" fill="url(#paint0_linear_377_2606)"/>
<path d="M170.712 428.281C173.86 426.347 177.818 426.306 181.006 428.176L207.994 444.005C209.264 444.75 209.32 446.567 208.098 447.389L181.197 465.496C177.93 467.695 173.675 467.772 170.331 465.691L143.013 448.694C141.75 447.908 141.756 446.069 143.022 445.291L170.712 428.281Z" fill="#2E2E43"/>
<path d="M170.843 428.494C173.912 426.608 177.772 426.569 180.879 428.391L207.867 444.221C208.979 444.873 209.028 446.462 207.959 447.182L181.058 465.288C177.872 467.433 173.724 467.507 170.463 465.478L143.145 448.481C142.04 447.794 142.045 446.185 143.153 445.504L170.843 428.494Z" stroke="url(#paint1_linear_377_2606)" stroke-opacity="0.5" stroke-width="0.5"/>
<path d="M170.61 434.254C173.659 432.532 177.397 432.578 180.404 434.374L197.857 444.799C198.953 445.453 199.002 447.023 197.949 447.744L180.902 459.429C177.655 461.654 173.39 461.71 170.087 459.569L151.881 447.771C150.778 447.056 150.828 445.426 151.973 444.779L170.61 434.254Z" stroke="black" stroke-opacity="0.14" stroke-width="0.5"/>
<path d="M163.072 421.11L168.946 445.95H181.366L185.897 421.11H163.072Z" fill="url(#paint2_linear_377_2606)"/>
<ellipse cx="175.492" cy="446.285" rx="7.04897" ry="4.36365" fill="#BF8FFB"/>
<path d="M1027.31 344L938.311 292" stroke="url(#paint3_linear_377_2606)"/>
<path d="M505.311 442L416.311 390" stroke="url(#paint4_linear_377_2606)"/>
<path d="M871.311 453L960.311 505" stroke="url(#paint5_linear_377_2606)"/>
<path d="M173.311 250L262.311 301" stroke="url(#paint6_linear_377_2606)"/>
<path d="M542.161 450.908C542.112 459.536 534.594 466.048 517.651 465.953C500.708 465.858 493.263 459.262 493.312 450.634C493.36 442.006 493.373 439.632 493.373 439.632L542.222 439.906C542.222 439.906 542.186 446.36 542.161 450.908Z" fill="url(#paint7_linear_377_2606)"/>
<ellipse cx="517.796" cy="440.208" rx="24.4249" ry="15.6231" transform="rotate(0.321083 517.796 440.208)" fill="#2E2E43"/>
<path d="M541.97 440.344C541.946 444.544 539.263 448.366 534.871 451.141C530.481 453.914 524.414 455.619 517.709 455.581C511.005 455.544 504.957 453.771 500.599 450.949C496.238 448.125 493.598 444.273 493.621 440.073C493.645 435.873 496.328 432.051 500.72 429.276C505.11 426.503 511.178 424.798 517.882 424.836C524.586 424.873 530.634 426.646 534.992 429.468C539.353 432.292 541.994 436.144 541.97 440.344Z" stroke="url(#paint8_linear_377_2606)" stroke-opacity="0.5" stroke-width="0.5"/>
<path d="M502.128 408.874L509.655 439.943L525.938 440.034L532.053 409.042L502.128 408.874Z" fill="url(#paint9_linear_377_2606)"/>
<ellipse cx="517.797" cy="439.988" rx="8.14162" ry="5.28105" transform="rotate(0.321083 517.797 439.988)" fill="#BF8FFB"/>
<ellipse cx="517.902" cy="460.453" rx="1.76035" ry="1.98039" transform="rotate(0.321083 517.902 460.453)" fill="#BF8FFB"/>
<path d="M501.645 455.741C501.64 456.714 500.9 457.498 499.992 457.493C499.085 457.487 498.559 456.696 498.564 455.724C498.57 454.752 499.31 453.968 500.217 453.973C501.125 453.978 501.65 454.769 501.645 455.741Z" fill="#BF8FFB"/>
<path d="M534.211 455.924C534.205 456.896 534.937 457.688 535.844 457.693C536.751 457.698 537.286 456.913 537.291 455.941C537.297 454.969 536.566 454.177 535.658 454.172C534.751 454.166 534.216 454.952 534.211 455.924Z" fill="#BF8FFB"/>
<path d="M887.806 450.908C887.757 459.536 880.239 466.048 863.296 465.953C846.353 465.858 838.908 459.262 838.957 450.634C839.005 442.006 839.018 439.632 839.018 439.632L887.867 439.906C887.867 439.906 887.831 446.36 887.806 450.908Z" fill="url(#paint10_linear_377_2606)"/>
<ellipse cx="863.441" cy="440.208" rx="24.4249" ry="15.6231" transform="rotate(0.321083 863.441 440.208)" fill="#2E2E43"/>
<path d="M887.615 440.344C887.592 444.544 884.908 448.366 880.516 451.141C876.126 453.914 870.059 455.619 863.354 455.581C856.65 455.544 850.602 453.771 846.244 450.949C841.883 448.125 839.243 444.273 839.266 440.073C839.29 435.873 841.973 432.051 846.365 429.276C850.755 426.503 856.823 424.798 863.527 424.836C870.231 424.873 876.279 426.646 880.637 429.468C884.998 432.292 887.639 436.144 887.615 440.344Z" stroke="url(#paint11_linear_377_2606)" stroke-opacity="0.5" stroke-width="0.5"/>
<path d="M847.773 408.874L855.3 439.943L871.583 440.034L877.698 409.042L847.773 408.874Z" fill="url(#paint12_linear_377_2606)"/>
<ellipse cx="863.442" cy="439.988" rx="8.14162" ry="5.28105" transform="rotate(0.321083 863.442 439.988)" fill="#BF8FFB"/>
<ellipse cx="863.547" cy="460.453" rx="1.76035" ry="1.98039" transform="rotate(0.321083 863.547 460.453)" fill="#BF8FFB"/>
<path d="M847.29 455.741C847.284 456.714 846.544 457.498 845.637 457.493C844.73 457.487 844.204 456.696 844.209 455.724C844.215 454.752 844.955 453.968 845.862 453.973C846.77 453.978 847.295 454.769 847.29 455.741Z" fill="#BF8FFB"/>
<path d="M879.856 455.924C879.85 456.896 880.582 457.688 881.489 457.693C882.396 457.698 882.931 456.913 882.936 455.941C882.942 454.969 882.211 454.177 881.303 454.172C880.396 454.166 879.861 454.952 879.856 455.924Z" fill="#BF8FFB"/>
<ellipse cx="258.743" cy="398.414" rx="2.72361" ry="1.81574" fill="#BA8CF4"/>
<path d="M266.664 398.414C266.664 399.808 265.816 401.101 264.382 402.057C262.95 403.012 260.957 403.611 258.743 403.611C256.529 403.611 254.536 403.012 253.104 402.057C251.67 401.101 250.822 399.808 250.822 398.414C250.822 397.019 251.67 395.726 253.104 394.77C254.536 393.815 256.529 393.216 258.743 393.216C260.957 393.216 262.95 393.815 264.382 394.77C265.816 395.726 266.664 397.019 266.664 398.414Z" stroke="#B27DF5" stroke-width="0.5"/>
<g opacity="0.23" filter="url(#filter0_f_377_2606)">
<ellipse cx="258.289" cy="397.506" rx="12.2562" ry="8.17083" fill="#BF8FFB"/>
</g>
<ellipse cx="690.435" cy="448.346" rx="2.72361" ry="1.81574" fill="#BA8CF4"/>
<path d="M698.356 448.346C698.356 449.741 697.508 451.034 696.074 451.99C694.642 452.945 692.649 453.544 690.435 453.544C688.221 453.544 686.228 452.945 684.796 451.99C683.362 451.034 682.514 449.741 682.514 448.346C682.514 446.952 683.362 445.659 684.796 444.703C686.228 443.748 688.221 443.149 690.435 443.149C692.649 443.149 694.642 443.748 696.074 444.703C697.508 445.659 698.356 446.952 698.356 448.346Z" stroke="#B27DF5" stroke-width="0.5"/>
<g opacity="0.23" filter="url(#filter1_f_377_2606)">
<ellipse cx="689.981" cy="447.439" rx="12.2562" ry="8.17083" fill="#BF8FFB"/>
</g>
<ellipse cx="1035.88" cy="448.346" rx="2.72361" ry="1.81574" fill="#BA8CF4"/>
<path d="M1043.8 448.346C1043.8 449.741 1042.95 451.034 1041.52 451.99C1040.09 452.945 1038.09 453.544 1035.88 453.544C1033.67 453.544 1031.67 452.945 1030.24 451.99C1028.81 451.034 1027.96 449.741 1027.96 448.346C1027.96 446.952 1028.81 445.659 1030.24 444.703C1031.67 443.748 1033.67 443.149 1035.88 443.149C1038.09 443.149 1040.09 443.748 1041.52 444.703C1042.95 445.659 1043.8 446.952 1043.8 448.346Z" stroke="#B27DF5" stroke-width="0.5"/>
<g opacity="0.23" filter="url(#filter2_f_377_2606)">
<ellipse cx="1035.43" cy="447.439" rx="12.2562" ry="8.17083" fill="#BF8FFB"/>
</g>
<ellipse cx="172.495" cy="249.523" rx="2.72361" ry="1.81574" fill="#BA8CF4"/>
<path d="M180.416 249.523C180.416 250.918 179.568 252.211 178.134 253.167C176.702 254.121 174.709 254.72 172.495 254.72C170.281 254.72 168.288 254.121 166.856 253.167C165.422 252.211 164.574 250.918 164.574 249.523C164.574 248.128 165.422 246.835 166.856 245.879C168.288 244.924 170.281 244.326 172.495 244.326C174.709 244.326 176.702 244.924 178.134 245.879C179.568 246.835 180.416 248.128 180.416 249.523Z" stroke="#B27DF5" stroke-width="0.5"/>
<g opacity="0.23" filter="url(#filter3_f_377_2606)">
<ellipse cx="172.041" cy="248.615" rx="12.2562" ry="8.17083" fill="#BF8FFB"/>
</g>
<path d="M1029.94 330.103C1032.37 329.134 1035.06 329.168 1037.47 330.181L1067.28 342.699V349.077L1039.28 368.674C1035.92 371.027 1031.46 371.088 1028.04 368.826L998.132 349.077C998.132 349.077 998.158 344.032 998.158 343.36C998.158 342.825 1020.78 333.752 1029.94 330.103Z" fill="url(#paint13_linear_377_2606)"/>
<path d="M1028.78 325.315C1031.87 323.601 1035.63 323.646 1038.68 325.435L1065.93 341.416C1067.2 342.161 1067.26 343.978 1066.04 344.8L1039.19 362.866C1035.9 365.086 1031.6 365.141 1028.24 363.007L999.678 344.83C998.398 344.016 998.455 342.129 999.782 341.394L1028.78 325.315Z" fill="#2E2E43"/>
<path d="M1028.9 325.534C1031.91 323.862 1035.58 323.907 1038.56 325.651L1065.8 341.632C1066.92 342.284 1066.96 343.873 1065.9 344.593L1039.05 362.659C1035.84 364.823 1031.65 364.877 1028.38 362.796L999.812 344.619C998.693 343.907 998.742 342.256 999.903 341.612L1028.9 325.534Z" stroke="url(#paint14_linear_377_2606)" stroke-opacity="0.5" stroke-width="0.5"/>
<path d="M1028.55 331.665C1031.6 329.943 1035.33 329.989 1038.34 331.784L1055.79 342.209C1056.89 342.864 1056.94 344.434 1055.89 345.155L1038.84 356.84C1035.59 359.065 1031.33 359.12 1028.02 356.98L1009.82 345.182C1008.71 344.467 1008.76 342.836 1009.91 342.19L1028.55 331.665Z" stroke="black" stroke-opacity="0.14" stroke-width="0.5"/>
<path d="M1021.01 318.521L1026.88 343.36H1039.3L1043.83 318.521H1021.01Z" fill="url(#paint15_linear_377_2606)"/>
<ellipse cx="1033.43" cy="343.696" rx="7.04897" ry="4.36365" fill="#BF8FFB"/>
<path d="M194.311 435.339L258.961 398L345.311 449" stroke="url(#paint16_linear_377_2606)"/>
<path d="M619.311 488.982L690.343 448L777.311 499" stroke="url(#paint17_linear_377_2606)"/>
<path d="M965.337 489L1036.31 448.296L949.311 399" stroke="url(#paint18_linear_377_2606)"/>
<defs>
<filter id="filter0_f_377_2606" x="227.033" y="370.335" width="62.5125" height="54.3417" filterUnits="userSpaceOnUse" color-interpolation-filters="sRGB">
<feFlood flood-opacity="0" result="BackgroundImageFix"/>
<feBlend mode="normal" in="SourceGraphic" in2="BackgroundImageFix" result="shape"/>
<feGaussianBlur stdDeviation="9.5" result="effect1_foregroundBlur_377_2606"/>
</filter>
<filter id="filter1_f_377_2606" x="658.725" y="420.268" width="62.5125" height="54.3417" filterUnits="userSpaceOnUse" color-interpolation-filters="sRGB">
<feFlood flood-opacity="0" result="BackgroundImageFix"/>
<feBlend mode="normal" in="SourceGraphic" in2="BackgroundImageFix" result="shape"/>
<feGaussianBlur stdDeviation="9.5" result="effect1_foregroundBlur_377_2606"/>
</filter>
<filter id="filter2_f_377_2606" x="1004.17" y="420.268" width="62.5125" height="54.3417" filterUnits="userSpaceOnUse" color-interpolation-filters="sRGB">
<feFlood flood-opacity="0" result="BackgroundImageFix"/>
<feBlend mode="normal" in="SourceGraphic" in2="BackgroundImageFix" result="shape"/>
<feGaussianBlur stdDeviation="9.5" result="effect1_foregroundBlur_377_2606"/>
</filter>
<filter id="filter3_f_377_2606" x="140.785" y="221.444" width="62.5125" height="54.3416" filterUnits="userSpaceOnUse" color-interpolation-filters="sRGB">
<feFlood flood-opacity="0" result="BackgroundImageFix"/>
<feBlend mode="normal" in="SourceGraphic" in2="BackgroundImageFix" result="shape"/>
<feGaussianBlur stdDeviation="9.5" result="effect1_foregroundBlur_377_2606"/>
</filter>
<linearGradient id="paint0_linear_377_2606" x1="140.195" y1="453.361" x2="209.342" y2="453.361" gradientUnits="userSpaceOnUse">
<stop stop-color="#424257"/>
<stop offset="1" stop-color="#28283E"/>
</linearGradient>
<linearGradient id="paint1_linear_377_2606" x1="175.492" y1="446.285" x2="173.142" y2="467.096" gradientUnits="userSpaceOnUse">
<stop stop-color="#CBCBCB" stop-opacity="0"/>
<stop offset="1" stop-color="#8E8E8E"/>
</linearGradient>
<linearGradient id="paint2_linear_377_2606" x1="174.485" y1="421.11" x2="174.485" y2="445.95" gradientUnits="userSpaceOnUse">
<stop stop-color="#B87EFF" stop-opacity="0"/>
<stop offset="0.479167" stop-color="#A36DE8" stop-opacity="0.15"/>
<stop offset="1" stop-color="#6C3BA9"/>
</linearGradient>
<linearGradient id="paint3_linear_377_2606" x1="989.701" y1="341.371" x2="939.27" y2="313.151" gradientUnits="userSpaceOnUse">
<stop stop-color="#BF8FFB"/>
<stop offset="1" stop-color="#BF8FFB" stop-opacity="0"/>
</linearGradient>
<linearGradient id="paint4_linear_377_2606" x1="467.701" y1="439.371" x2="417.27" y2="411.151" gradientUnits="userSpaceOnUse">
<stop stop-color="#BF8FFB"/>
<stop offset="1" stop-color="#BF8FFB" stop-opacity="0"/>
</linearGradient>
<linearGradient id="paint5_linear_377_2606" x1="908.921" y1="455.629" x2="959.352" y2="483.849" gradientUnits="userSpaceOnUse">
<stop stop-color="#BF8FFB"/>
<stop offset="1" stop-color="#BF8FFB" stop-opacity="0"/>
</linearGradient>
<linearGradient id="paint6_linear_377_2606" x1="210.921" y1="252.578" x2="260.88" y2="281.083" gradientUnits="userSpaceOnUse">
<stop stop-color="#BF8FFB"/>
<stop offset="1" stop-color="#BF8FFB" stop-opacity="0"/>
</linearGradient>
<linearGradient id="paint7_linear_377_2606" x1="493.299" y1="452.834" x2="542.148" y2="453.108" gradientUnits="userSpaceOnUse">
<stop stop-color="#424257"/>
<stop offset="1" stop-color="#28283E"/>
</linearGradient>
<linearGradient id="paint8_linear_377_2606" x1="517.787" y1="441.749" x2="517.708" y2="455.831" gradientUnits="userSpaceOnUse">
<stop stop-color="#CBCBCB" stop-opacity="0"/>
<stop offset="1" stop-color="#8E8E8E"/>
</linearGradient>
<linearGradient id="paint9_linear_377_2606" x1="517.09" y1="408.958" x2="516.916" y2="439.984" gradientUnits="userSpaceOnUse">
<stop stop-color="#B87EFF" stop-opacity="0"/>
<stop offset="0.479167" stop-color="#A36DE8" stop-opacity="0.15"/>
<stop offset="1" stop-color="#6C3BA9"/>
</linearGradient>
<linearGradient id="paint10_linear_377_2606" x1="838.944" y1="452.834" x2="887.793" y2="453.108" gradientUnits="userSpaceOnUse">
<stop stop-color="#424257"/>
<stop offset="1" stop-color="#28283E"/>
</linearGradient>
<linearGradient id="paint11_linear_377_2606" x1="863.432" y1="441.749" x2="863.353" y2="455.831" gradientUnits="userSpaceOnUse">
<stop stop-color="#CBCBCB" stop-opacity="0"/>
<stop offset="1" stop-color="#8E8E8E"/>
</linearGradient>
<linearGradient id="paint12_linear_377_2606" x1="862.735" y1="408.958" x2="862.561" y2="439.984" gradientUnits="userSpaceOnUse">
<stop stop-color="#B87EFF" stop-opacity="0"/>
<stop offset="0.479167" stop-color="#A36DE8" stop-opacity="0.15"/>
<stop offset="1" stop-color="#6C3BA9"/>
</linearGradient>
<linearGradient id="paint13_linear_377_2606" x1="998.132" y1="350.772" x2="1067.28" y2="350.772" gradientUnits="userSpaceOnUse">
<stop stop-color="#424257"/>
<stop offset="1" stop-color="#28283E"/>
</linearGradient>
<linearGradient id="paint14_linear_377_2606" x1="1033.43" y1="343.696" x2="1031.08" y2="364.507" gradientUnits="userSpaceOnUse">
<stop stop-color="#CBCBCB" stop-opacity="0"/>
<stop offset="1" stop-color="#8E8E8E"/>
</linearGradient>
<linearGradient id="paint15_linear_377_2606" x1="1032.42" y1="318.521" x2="1032.42" y2="343.36" gradientUnits="userSpaceOnUse">
<stop stop-color="#B87EFF" stop-opacity="0"/>
<stop offset="0.479167" stop-color="#A36DE8" stop-opacity="0.15"/>
<stop offset="1" stop-color="#6C3BA9"/>
</linearGradient>
<linearGradient id="paint16_linear_377_2606" x1="261.221" y1="398" x2="260.447" y2="444.122" gradientUnits="userSpaceOnUse">
<stop stop-color="#BF8FFB"/>
<stop offset="1" stop-color="#BF8FFB" stop-opacity="0"/>
</linearGradient>
<linearGradient id="paint17_linear_377_2606" x1="692.619" y1="448" x2="691.851" y2="494.122" gradientUnits="userSpaceOnUse">
<stop stop-color="#BF8FFB"/>
<stop offset="1" stop-color="#BF8FFB" stop-opacity="0"/>
</linearGradient>
<linearGradient id="paint18_linear_377_2606" x1="1038.6" y1="448.296" x2="986.034" y2="469.406" gradientUnits="userSpaceOnUse">
<stop stop-color="#BF8FFB"/>
<stop offset="1" stop-color="#BF8FFB" stop-opacity="0"/>
</linearGradient>
</defs>
</svg>
