<svg width="187" height="34" viewBox="0 0 187 34" fill="none" xmlns="http://www.w3.org/2000/svg">
<path d="M62.9498 14.2191H59.0698C58.999 13.7286 58.8543 13.2929 58.6358 12.9121C58.4173 12.5254 58.1368 12.1965 57.7943 11.9253C57.4517 11.6541 57.0561 11.4463 56.6073 11.3021C56.1643 11.1578 55.683 11.0857 55.1634 11.0857C54.2244 11.0857 53.4065 11.3136 52.7096 11.7695C52.0128 12.2196 51.4724 12.8774 51.0886 13.7431C50.7047 14.6029 50.5128 15.6474 50.5128 16.8765C50.5128 18.1403 50.7047 19.2021 51.0886 20.062C51.4783 20.9218 52.0216 21.571 52.7185 22.0096C53.4153 22.4481 54.2214 22.6674 55.1368 22.6674C55.6506 22.6674 56.126 22.6011 56.563 22.4683C57.0059 22.3356 57.3986 22.1423 57.7411 21.8884C58.0836 21.6287 58.3671 21.3142 58.5915 20.9449C58.8218 20.5756 58.9813 20.1543 59.0698 19.6811L62.9498 19.6984C62.8494 20.5121 62.5984 21.2969 62.1968 22.0528C61.8011 22.803 61.2667 23.4753 60.5935 24.0697C59.9261 24.6583 59.1289 25.1257 58.2017 25.472C57.2805 25.8125 56.2382 25.9827 55.0748 25.9827C53.4567 25.9827 52.0098 25.6249 50.7342 24.9093C49.4646 24.1938 48.4606 23.1579 47.7224 21.8018C46.9902 20.4457 46.624 18.8039 46.624 16.8765C46.624 14.9434 46.9961 13.2987 47.7402 11.9426C48.4843 10.5865 49.4941 9.55353 50.7697 8.84374C52.0453 8.12817 53.4803 7.77039 55.0748 7.77039C56.126 7.77039 57.1004 7.91465 57.998 8.20319C58.9015 8.49172 59.7017 8.91298 60.3986 9.46697C61.0954 10.0152 61.6624 10.6875 62.0994 11.4838C62.5423 12.2802 62.8257 13.192 62.9498 14.2191Z" fill="white"/>
<path d="M69.403 18.0538V25.7403H65.6294V8.01276H69.2967V14.7904H69.4561C69.7632 14.0056 70.2593 13.391 70.9443 12.9467C71.6294 12.4966 72.4886 12.2715 73.5221 12.2715C74.4669 12.2715 75.2908 12.4735 75.9935 12.8774C76.7022 13.2756 77.2514 13.8498 77.6411 14.6C78.0368 15.3444 78.2317 16.236 78.2258 17.2747V25.7403H74.4522V17.9326C74.4581 17.1131 74.2455 16.4755 73.8144 16.0196C73.3892 15.5637 72.7927 15.3358 72.025 15.3358C71.5112 15.3358 71.0565 15.4425 70.6608 15.656C70.2711 15.8696 69.964 16.1812 69.7396 16.5909C69.5211 16.9948 69.4089 17.4825 69.403 18.0538Z" fill="white"/>
<path d="M85.0754 25.9913C84.2073 25.9913 83.4337 25.8442 82.7546 25.5499C82.0754 25.2498 81.538 24.8084 81.1424 24.2255C80.7526 23.6369 80.5577 22.904 80.5577 22.0269C80.5577 21.2882 80.6965 20.6679 80.974 20.1658C81.2516 19.6638 81.6296 19.2598 82.1079 18.954C82.5862 18.6481 83.1296 18.4173 83.7378 18.2615C84.352 18.1057 84.9957 17.9961 85.6689 17.9326C86.4603 17.8518 87.098 17.7768 87.5823 17.7075C88.0665 17.6325 88.4179 17.5229 88.6364 17.3786C88.8549 17.2343 88.9642 17.0208 88.9642 16.738V16.6861C88.9642 16.1379 88.787 15.7137 88.4327 15.4137C88.0843 15.1136 87.5882 14.9636 86.9445 14.9636C86.2654 14.9636 85.725 15.1107 85.3234 15.405C84.9219 15.6935 84.6561 16.0571 84.5262 16.4957L81.0361 16.2187C81.2132 15.4108 81.5616 14.7125 82.0813 14.1239C82.601 13.5295 83.2713 13.0737 84.0921 12.7563C84.9189 12.4331 85.8756 12.2715 86.9622 12.2715C87.7181 12.2715 88.4415 12.3581 89.1325 12.5312C89.8293 12.7043 90.4465 12.9727 90.9839 13.3362C91.5272 13.6998 91.9553 14.1672 92.2683 14.7385C92.5813 15.304 92.7378 15.9821 92.7378 16.7727V25.7403H89.1591V23.8966H89.0528C88.8343 24.3121 88.5419 24.6785 88.1758 24.9959C87.8097 25.3075 87.3697 25.5528 86.8559 25.7317C86.3421 25.9048 85.7486 25.9913 85.0754 25.9913ZM86.1561 23.4465C86.7112 23.4465 87.2014 23.3397 87.6266 23.1262C88.0518 22.9069 88.3854 22.6126 88.6276 22.2433C88.8697 21.874 88.9908 21.4556 88.9908 20.9882V19.5772C88.8726 19.6522 88.7102 19.7215 88.5036 19.785C88.3028 19.8427 88.0754 19.8975 87.8215 19.9494C87.5675 19.9956 87.3136 20.0389 87.0597 20.0793C86.8057 20.1139 86.5754 20.1456 86.3687 20.1745C85.9258 20.238 85.539 20.339 85.2083 20.4774C84.8776 20.6159 84.6207 20.8035 84.4376 21.0401C84.2546 21.2709 84.163 21.5595 84.163 21.9057C84.163 22.4077 84.349 22.7915 84.7211 23.0569C85.099 23.3166 85.5774 23.4465 86.1561 23.4465Z" fill="white"/>
<path d="M95.6654 25.7403V12.4446H99.439V25.7403H95.6654ZM97.5611 10.7308C97.0001 10.7308 96.5188 10.549 96.1172 10.1854C95.7215 9.8161 95.5237 9.37464 95.5237 8.86105C95.5237 8.35323 95.7215 7.91754 96.1172 7.55399C96.5188 7.18466 97.0001 7 97.5611 7C98.1221 7 98.6005 7.18466 98.9961 7.55399C99.3977 7.91754 99.5985 8.35323 99.5985 8.86105C99.5985 9.37464 99.3977 9.8161 98.9961 10.1854C98.6005 10.549 98.1221 10.7308 97.5611 10.7308Z" fill="white"/>
<path d="M106.236 18.0538V25.7403H102.462V12.4446H106.058V14.7904H106.218C106.519 14.0172 107.024 13.4055 107.733 12.9554C108.441 12.4995 109.3 12.2715 110.31 12.2715C111.255 12.2715 112.079 12.4735 112.782 12.8774C113.485 13.2814 114.031 13.8585 114.421 14.6087C114.81 15.3531 115.005 16.2418 115.005 17.2747V25.7403H111.232V17.9326C111.237 17.1189 111.025 16.4841 110.594 16.0282C110.163 15.5666 109.569 15.3358 108.813 15.3358C108.305 15.3358 107.857 15.4425 107.467 15.656C107.083 15.8696 106.782 16.1812 106.563 16.5909C106.351 16.9948 106.241 17.4825 106.236 18.0538Z" fill="white"/>
<path d="M130.08 13.7431C129.956 13.3218 129.781 12.9496 129.557 12.6264C129.333 12.2975 129.058 12.0205 128.733 11.7954C128.414 11.5646 128.048 11.3886 127.635 11.2674C127.227 11.1462 126.776 11.0857 126.28 11.0857C125.352 11.0857 124.537 11.3107 123.835 11.7608C123.138 12.2109 122.594 12.8659 122.205 13.7257C121.815 14.5798 121.62 15.6243 121.62 16.8592C121.62 18.0942 121.812 19.1444 122.196 20.01C122.58 20.8756 123.123 21.5364 123.826 21.9923C124.529 22.4424 125.358 22.6674 126.315 22.6674C127.183 22.6674 127.924 22.5174 128.538 22.2173C129.158 21.9115 129.631 21.4815 129.956 20.9276C130.286 20.3736 130.452 19.7186 130.452 18.9626L131.231 19.0752H126.554V16.2533H134.146V18.4866C134.146 20.0446 133.809 21.3834 133.136 22.503C132.463 23.6167 131.535 24.4765 130.354 25.0825C129.173 25.6826 127.821 25.9827 126.297 25.9827C124.596 25.9827 123.102 25.6163 121.815 24.8834C120.528 24.1447 119.524 23.0973 118.803 21.7412C118.089 20.3793 117.731 18.7636 117.731 16.8938C117.731 15.4569 117.944 14.1759 118.369 13.0506C118.8 11.9195 119.403 10.9616 120.176 10.1768C120.95 9.39195 121.85 8.79469 122.878 8.38497C123.905 7.97525 125.019 7.77039 126.217 7.77039C127.245 7.77039 128.202 7.91754 129.088 8.21185C129.973 8.50038 130.759 8.9101 131.444 9.441C132.135 9.97191 132.699 10.6038 133.136 11.3367C133.573 12.0638 133.853 12.8659 133.977 13.7431H130.08Z" fill="white"/>
<path d="M140.836 25.9913C139.968 25.9913 139.194 25.8442 138.515 25.5499C137.836 25.2498 137.298 24.8084 136.903 24.2255C136.513 23.6369 136.318 22.904 136.318 22.0269C136.318 21.2882 136.457 20.6679 136.734 20.1658C137.012 19.6638 137.39 19.2598 137.868 18.954C138.347 18.6481 138.89 18.4173 139.498 18.2615C140.112 18.1057 140.756 17.9961 141.429 17.9326C142.221 17.8518 142.858 17.7768 143.343 17.7075C143.827 17.6325 144.178 17.5229 144.397 17.3786C144.615 17.2343 144.725 17.0208 144.725 16.738V16.6861C144.725 16.1379 144.547 15.7137 144.193 15.4137C143.845 15.1136 143.349 14.9636 142.705 14.9636C142.026 14.9636 141.485 15.1107 141.084 15.405C140.682 15.6935 140.417 16.0571 140.287 16.4957L136.796 16.2187C136.974 15.4108 137.322 14.7125 137.842 14.1239C138.361 13.5295 139.032 13.0737 139.853 12.7563C140.679 12.4331 141.636 12.2715 142.723 12.2715C143.479 12.2715 144.202 12.3581 144.893 12.5312C145.59 12.7043 146.207 12.9727 146.744 13.3362C147.288 13.6998 147.716 14.1672 148.029 14.7385C148.342 15.304 148.498 15.9821 148.498 16.7727V25.7403H144.919V23.8966H144.813C144.595 24.3121 144.302 24.6785 143.936 24.9959C143.57 25.3075 143.13 25.5528 142.616 25.7317C142.103 25.9048 141.509 25.9913 140.836 25.9913ZM141.917 23.4465C142.472 23.4465 142.962 23.3397 143.387 23.1262C143.812 22.9069 144.146 22.6126 144.388 22.2433C144.63 21.874 144.751 21.4556 144.751 20.9882V19.5772C144.633 19.6522 144.471 19.7215 144.264 19.785C144.063 19.8427 143.836 19.8975 143.582 19.9494C143.328 19.9956 143.074 20.0389 142.82 20.0793C142.566 20.1139 142.336 20.1456 142.129 20.1745C141.686 20.238 141.299 20.339 140.969 20.4774C140.638 20.6159 140.381 20.8035 140.198 21.0401C140.015 21.2709 139.923 21.5595 139.923 21.9057C139.923 22.4077 140.109 22.7915 140.481 23.0569C140.859 23.3166 141.338 23.4465 141.917 23.4465Z" fill="white"/>
<path d="M151.426 25.7403V12.4446H155.022V14.7904H155.182C155.465 14.0114 155.938 13.3968 156.599 12.9467C157.26 12.4966 158.052 12.2715 158.973 12.2715C159.906 12.2715 160.7 12.4995 161.356 12.9554C162.011 13.4055 162.448 14.0172 162.667 14.7904H162.809C163.086 14.0287 163.588 13.4199 164.315 12.964C165.047 12.5024 165.912 12.2715 166.91 12.2715C168.18 12.2715 169.21 12.6668 170.002 13.4574C170.799 14.2422 171.197 15.356 171.197 16.7986V25.7403H167.433V17.5257C167.433 16.7871 167.232 16.2331 166.83 15.8638C166.429 15.4945 165.927 15.3098 165.324 15.3098C164.639 15.3098 164.105 15.5233 163.721 15.9503C163.337 16.3716 163.145 16.9285 163.145 17.621V25.7403H159.487V17.4478C159.487 16.7957 159.295 16.2764 158.911 15.8897C158.533 15.5031 158.034 15.3098 157.414 15.3098C156.995 15.3098 156.617 15.4137 156.28 15.6214C155.949 15.8234 155.687 16.109 155.492 16.4784C155.297 16.8419 155.199 17.2689 155.199 17.7595V25.7403H151.426Z" fill="white"/>
<path d="M180.379 26C178.979 26 177.775 25.723 176.765 25.169C175.761 24.6093 174.987 23.8187 174.444 22.7973C173.901 21.7701 173.629 20.5554 173.629 19.1531C173.629 17.7854 173.901 16.5851 174.444 15.5522C174.987 14.5192 175.752 13.7142 176.738 13.1371C177.73 12.5601 178.894 12.2715 180.228 12.2715C181.126 12.2715 181.962 12.4129 182.735 12.6957C183.515 12.9727 184.194 13.391 184.773 13.9508C185.357 14.5106 185.812 15.2146 186.137 16.0629C186.462 16.9054 186.624 17.8922 186.624 19.0232V20.036H175.135V17.7508H183.072C183.072 17.2199 182.954 16.7496 182.718 16.3399C182.481 15.9301 182.154 15.6099 181.734 15.379C181.321 15.1424 180.84 15.0241 180.29 15.0241C179.718 15.0241 179.21 15.154 178.767 15.4137C178.33 15.6676 177.987 16.0109 177.739 16.4437C177.491 16.8708 177.364 17.3468 177.358 17.872V20.0446C177.358 20.7025 177.482 21.2709 177.73 21.7499C177.984 22.2289 178.342 22.5982 178.802 22.8579C179.263 23.1175 179.809 23.2474 180.441 23.2474C180.86 23.2474 181.244 23.1897 181.593 23.0743C181.941 22.9588 182.239 22.7857 182.487 22.5549C182.735 22.3241 182.924 22.0413 183.054 21.7066L186.544 21.9317C186.367 22.7511 186.004 23.4667 185.455 24.0784C184.911 24.6843 184.209 25.1575 183.346 25.498C182.49 25.8327 181.501 26 180.379 26Z" fill="white"/>
<path d="M16.2699 26.8299C8.079 23.1128 7.4608 11.895 7.4608 11.895C0.180899 17.5445 5.50895 28.2313 8.17845 30.2981C10.848 32.365 14.0354 35.0625 17.9382 33.5676C21.841 32.0727 26.8419 29.2846 29.2913 27.091C31.7407 24.8973 31.8615 21.9725 31.6025 16.9602C30.5541 21.8461 22.0917 28.658 16.2699 26.8299Z" fill="url(#paint0_linear_301_3374)"/>
<path d="M7.18026 12.2366C14.4703 6.97925 24.5747 11.9812 24.5747 11.9812C23.233 2.88921 11.2677 2.22747 8.14455 3.51866C5.02141 4.80986 1.0917 6.23821 0.471113 10.3553C-0.149477 14.4724 -0.182406 20.1787 0.524779 23.3823C1.23196 26.5859 3.72734 28.1342 8.2336 30.3841C4.48302 27.0646 2.70965 16.3751 7.18026 12.2366Z" fill="url(#paint1_linear_301_3374)"/>
<path d="M24.504 11.5853C25.4827 20.4941 16.1149 26.758 16.1149 26.758C24.7137 30.0988 31.2151 20.0764 31.6346 16.7356C32.054 13.3948 32.7531 9.2884 29.4674 6.71322C26.1817 4.13804 21.2182 1.28439 18.0724 0.310007C14.9265 -0.664374 12.3399 0.727589 8.14539 3.5116C12.8992 1.91081 23.1058 5.6692 24.504 11.5853Z" fill="url(#paint2_linear_301_3374)"/>
<defs>
<linearGradient id="paint0_linear_301_3374" x1="28.5485" y1="28.9571" x2="5.27972" y2="15.0545" gradientUnits="userSpaceOnUse">
<stop stop-color="#B09FFE"/>
<stop offset="1" stop-color="#7023BC"/>
</linearGradient>
<linearGradient id="paint1_linear_301_3374" x1="-0.738773" y1="21.818" x2="22.7878" y2="8.35229" gradientUnits="userSpaceOnUse">
<stop stop-color="#BBAEFA"/>
<stop offset="1" stop-color="#7023BC"/>
</linearGradient>
<linearGradient id="paint2_linear_301_3374" x1="20.0631" y1="-0.00849609" x2="20.0631" y2="27.009" gradientUnits="userSpaceOnUse">
<stop stop-color="#B09FFE"/>
<stop offset="1" stop-color="#7023BC"/>
</linearGradient>
</defs>
</svg>
