<svg width="182" height="36" viewBox="0 0 182 36" fill="none" xmlns="http://www.w3.org/2000/svg">
<path d="M57.9498 15.2191H54.0698C53.999 14.7286 53.8543 14.2929 53.6358 13.9121C53.4173 13.5254 53.1368 13.1965 52.7943 12.9253C52.4517 12.6541 52.0561 12.4463 51.6073 12.3021C51.1643 12.1578 50.683 12.0857 50.1634 12.0857C49.2244 12.0857 48.4065 12.3136 47.7096 12.7695C47.0128 13.2196 46.4724 13.8774 46.0886 14.7431C45.7047 15.6029 45.5128 16.6474 45.5128 17.8765C45.5128 19.1403 45.7047 20.2021 46.0886 21.062C46.4783 21.9218 47.0216 22.571 47.7185 23.0096C48.4153 23.4481 49.2214 23.6674 50.1368 23.6674C50.6506 23.6674 51.126 23.6011 51.563 23.4683C52.0059 23.3356 52.3986 23.1423 52.7411 22.8884C53.0836 22.6287 53.3671 22.3142 53.5915 21.9449C53.8218 21.5756 53.9813 21.1543 54.0698 20.6811L57.9498 20.6984C57.8494 21.5121 57.5984 22.2969 57.1968 23.0528C56.8011 23.803 56.2667 24.4753 55.5935 25.0697C54.9261 25.6583 54.1289 26.1257 53.2017 26.472C52.2805 26.8125 51.2382 26.9827 50.0748 26.9827C48.4567 26.9827 47.0098 26.6249 45.7342 25.9093C44.4646 25.1938 43.4606 24.1579 42.7224 22.8018C41.9902 21.4457 41.624 19.8039 41.624 17.8765C41.624 15.9434 41.9961 14.2987 42.7402 12.9426C43.4843 11.5865 44.4941 10.5535 45.7697 9.84374C47.0453 9.12817 48.4803 8.77039 50.0748 8.77039C51.126 8.77039 52.1004 8.91465 52.998 9.20319C53.9015 9.49172 54.7017 9.91298 55.3986 10.467C56.0954 11.0152 56.6624 11.6875 57.0994 12.4838C57.5423 13.2802 57.8257 14.192 57.9498 15.2191Z" fill="white"/>
<path d="M64.403 19.0538V26.7403H60.6294V9.01276H64.2967V15.7904H64.4561C64.7632 15.0056 65.2593 14.391 65.9443 13.9467C66.6294 13.4966 67.4886 13.2715 68.5221 13.2715C69.4669 13.2715 70.2908 13.4735 70.9935 13.8774C71.7022 14.2756 72.2514 14.8498 72.6411 15.6C73.0368 16.3444 73.2317 17.236 73.2258 18.2747V26.7403H69.4522V18.9326C69.4581 18.1131 69.2455 17.4755 68.8144 17.0196C68.3892 16.5637 67.7927 16.3358 67.025 16.3358C66.5112 16.3358 66.0565 16.4425 65.6608 16.656C65.2711 16.8696 64.964 17.1812 64.7396 17.5909C64.5211 17.9948 64.4089 18.4825 64.403 19.0538Z" fill="white"/>
<path d="M80.0754 26.9913C79.2073 26.9913 78.4337 26.8442 77.7546 26.5499C77.0754 26.2498 76.538 25.8084 76.1424 25.2255C75.7526 24.6369 75.5577 23.904 75.5577 23.0269C75.5577 22.2882 75.6965 21.6679 75.974 21.1658C76.2516 20.6638 76.6296 20.2598 77.1079 19.954C77.5862 19.6481 78.1296 19.4173 78.7378 19.2615C79.352 19.1057 79.9957 18.9961 80.6689 18.9326C81.4603 18.8518 82.098 18.7768 82.5823 18.7075C83.0665 18.6325 83.4179 18.5229 83.6364 18.3786C83.8549 18.2343 83.9642 18.0208 83.9642 17.738V17.6861C83.9642 17.1379 83.787 16.7137 83.4327 16.4137C83.0843 16.1136 82.5882 15.9636 81.9445 15.9636C81.2654 15.9636 80.725 16.1107 80.3234 16.405C79.9219 16.6935 79.6561 17.0571 79.5262 17.4957L76.0361 17.2187C76.2132 16.4108 76.5616 15.7125 77.0813 15.1239C77.601 14.5295 78.2713 14.0737 79.0921 13.7563C79.9189 13.4331 80.8756 13.2715 81.9622 13.2715C82.7181 13.2715 83.4415 13.3581 84.1325 13.5312C84.8293 13.7043 85.4465 13.9727 85.9839 14.3362C86.5272 14.6998 86.9553 15.1672 87.2683 15.7385C87.5813 16.304 87.7378 16.9821 87.7378 17.7727V26.7403H84.1591V24.8966H84.0528C83.8343 25.3121 83.5419 25.6785 83.1758 25.9959C82.8097 26.3075 82.3697 26.5528 81.8559 26.7317C81.3421 26.9048 80.7486 26.9913 80.0754 26.9913ZM81.1561 24.4465C81.7112 24.4465 82.2014 24.3397 82.6266 24.1262C83.0518 23.9069 83.3854 23.6126 83.6276 23.2433C83.8697 22.874 83.9908 22.4556 83.9908 21.9882V20.5772C83.8726 20.6522 83.7102 20.7215 83.5036 20.785C83.3028 20.8427 83.0754 20.8975 82.8215 20.9494C82.5675 20.9956 82.3136 21.0389 82.0597 21.0793C81.8057 21.1139 81.5754 21.1456 81.3687 21.1745C80.9258 21.238 80.539 21.339 80.2083 21.4774C79.8776 21.6159 79.6207 21.8035 79.4376 22.0401C79.2546 22.2709 79.163 22.5595 79.163 22.9057C79.163 23.4077 79.349 23.7915 79.7211 24.0569C80.099 24.3166 80.5774 24.4465 81.1561 24.4465Z" fill="white"/>
<path d="M90.6654 26.7403V13.4446H94.439V26.7403H90.6654ZM92.5611 11.7308C92.0001 11.7308 91.5188 11.549 91.1172 11.1854C90.7215 10.8161 90.5237 10.3746 90.5237 9.86105C90.5237 9.35323 90.7215 8.91754 91.1172 8.55399C91.5188 8.18466 92.0001 8 92.5611 8C93.1221 8 93.6005 8.18466 93.9961 8.55399C94.3977 8.91754 94.5985 9.35323 94.5985 9.86105C94.5985 10.3746 94.3977 10.8161 93.9961 11.1854C93.6005 11.549 93.1221 11.7308 92.5611 11.7308Z" fill="white"/>
<path d="M101.236 19.0538V26.7403H97.4619V13.4446H101.058V15.7904H101.218C101.519 15.0172 102.024 14.4055 102.733 13.9554C103.441 13.4995 104.3 13.2715 105.31 13.2715C106.255 13.2715 107.079 13.4735 107.782 13.8774C108.485 14.2814 109.031 14.8585 109.421 15.6087C109.81 16.3531 110.005 17.2418 110.005 18.2747V26.7403H106.232V18.9326C106.237 18.1189 106.025 17.4841 105.594 17.0282C105.163 16.5666 104.569 16.3358 103.813 16.3358C103.305 16.3358 102.857 16.4425 102.467 16.656C102.083 16.8696 101.782 17.1812 101.563 17.5909C101.351 17.9948 101.241 18.4825 101.236 19.0538Z" fill="white"/>
<path d="M125.08 14.7431C124.956 14.3218 124.781 13.9496 124.557 13.6264C124.333 13.2975 124.058 13.0205 123.733 12.7954C123.414 12.5646 123.048 12.3886 122.635 12.2674C122.227 12.1462 121.776 12.0857 121.28 12.0857C120.352 12.0857 119.537 12.3107 118.835 12.7608C118.138 13.2109 117.594 13.8659 117.205 14.7257C116.815 15.5798 116.62 16.6243 116.62 17.8592C116.62 19.0942 116.812 20.1444 117.196 21.01C117.58 21.8756 118.123 22.5364 118.826 22.9923C119.529 23.4424 120.358 23.6674 121.315 23.6674C122.183 23.6674 122.924 23.5174 123.538 23.2173C124.158 22.9115 124.631 22.4815 124.956 21.9276C125.286 21.3736 125.452 20.7186 125.452 19.9626L126.231 20.0752H121.554V17.2533H129.146V19.4866C129.146 21.0446 128.809 22.3834 128.136 23.503C127.463 24.6167 126.535 25.4765 125.354 26.0825C124.173 26.6826 122.821 26.9827 121.297 26.9827C119.596 26.9827 118.102 26.6163 116.815 25.8834C115.528 25.1447 114.524 24.0973 113.803 22.7412C113.089 21.3793 112.731 19.7636 112.731 17.8938C112.731 16.4569 112.944 15.1759 113.369 14.0506C113.8 12.9195 114.403 11.9616 115.176 11.1768C115.95 10.392 116.85 9.79469 117.878 9.38497C118.905 8.97525 120.019 8.77039 121.217 8.77039C122.245 8.77039 123.202 8.91754 124.088 9.21185C124.973 9.50038 125.759 9.9101 126.444 10.441C127.135 10.9719 127.699 11.6038 128.136 12.3367C128.573 13.0638 128.853 13.8659 128.977 14.7431H125.08Z" fill="white"/>
<path d="M135.836 26.9913C134.968 26.9913 134.194 26.8442 133.515 26.5499C132.836 26.2498 132.298 25.8084 131.903 25.2255C131.513 24.6369 131.318 23.904 131.318 23.0269C131.318 22.2882 131.457 21.6679 131.734 21.1658C132.012 20.6638 132.39 20.2598 132.868 19.954C133.347 19.6481 133.89 19.4173 134.498 19.2615C135.112 19.1057 135.756 18.9961 136.429 18.9326C137.221 18.8518 137.858 18.7768 138.343 18.7075C138.827 18.6325 139.178 18.5229 139.397 18.3786C139.615 18.2343 139.725 18.0208 139.725 17.738V17.6861C139.725 17.1379 139.547 16.7137 139.193 16.4137C138.845 16.1136 138.349 15.9636 137.705 15.9636C137.026 15.9636 136.485 16.1107 136.084 16.405C135.682 16.6935 135.417 17.0571 135.287 17.4957L131.796 17.2187C131.974 16.4108 132.322 15.7125 132.842 15.1239C133.361 14.5295 134.032 14.0737 134.853 13.7563C135.679 13.4331 136.636 13.2715 137.723 13.2715C138.479 13.2715 139.202 13.3581 139.893 13.5312C140.59 13.7043 141.207 13.9727 141.744 14.3362C142.288 14.6998 142.716 15.1672 143.029 15.7385C143.342 16.304 143.498 16.9821 143.498 17.7727V26.7403H139.919V24.8966H139.813C139.595 25.3121 139.302 25.6785 138.936 25.9959C138.57 26.3075 138.13 26.5528 137.616 26.7317C137.103 26.9048 136.509 26.9913 135.836 26.9913ZM136.917 24.4465C137.472 24.4465 137.962 24.3397 138.387 24.1262C138.812 23.9069 139.146 23.6126 139.388 23.2433C139.63 22.874 139.751 22.4556 139.751 21.9882V20.5772C139.633 20.6522 139.471 20.7215 139.264 20.785C139.063 20.8427 138.836 20.8975 138.582 20.9494C138.328 20.9956 138.074 21.0389 137.82 21.0793C137.566 21.1139 137.336 21.1456 137.129 21.1745C136.686 21.238 136.299 21.339 135.969 21.4774C135.638 21.6159 135.381 21.8035 135.198 22.0401C135.015 22.2709 134.923 22.5595 134.923 22.9057C134.923 23.4077 135.109 23.7915 135.481 24.0569C135.859 24.3166 136.338 24.4465 136.917 24.4465Z" fill="white"/>
<path d="M146.426 26.7403V13.4446H150.022V15.7904H150.182C150.465 15.0114 150.938 14.3968 151.599 13.9467C152.26 13.4966 153.052 13.2715 153.973 13.2715C154.906 13.2715 155.7 13.4995 156.356 13.9554C157.011 14.4055 157.448 15.0172 157.667 15.7904H157.809C158.086 15.0287 158.588 14.4199 159.315 13.964C160.047 13.5024 160.912 13.2715 161.91 13.2715C163.18 13.2715 164.21 13.6668 165.002 14.4574C165.799 15.2422 166.197 16.356 166.197 17.7986V26.7403H162.433V18.5257C162.433 17.7871 162.232 17.2331 161.83 16.8638C161.429 16.4945 160.927 16.3098 160.324 16.3098C159.639 16.3098 159.105 16.5233 158.721 16.9503C158.337 17.3716 158.145 17.9285 158.145 18.621V26.7403H154.487V18.4478C154.487 17.7957 154.295 17.2764 153.911 16.8897C153.533 16.5031 153.034 16.3098 152.414 16.3098C151.995 16.3098 151.617 16.4137 151.28 16.6214C150.949 16.8234 150.687 17.109 150.492 17.4784C150.297 17.8419 150.199 18.2689 150.199 18.7595V26.7403H146.426Z" fill="white"/>
<path d="M175.379 27C173.979 27 172.775 26.723 171.765 26.169C170.761 25.6093 169.987 24.8187 169.444 23.7973C168.901 22.7701 168.629 21.5554 168.629 20.1531C168.629 18.7854 168.901 17.5851 169.444 16.5522C169.987 15.5192 170.752 14.7142 171.738 14.1371C172.73 13.5601 173.894 13.2715 175.228 13.2715C176.126 13.2715 176.962 13.4129 177.735 13.6957C178.515 13.9727 179.194 14.391 179.773 14.9508C180.357 15.5106 180.812 16.2146 181.137 17.0629C181.462 17.9054 181.624 18.8922 181.624 20.0232V21.036H170.135V18.7508H178.072C178.072 18.2199 177.954 17.7496 177.718 17.3399C177.481 16.9301 177.154 16.6099 176.734 16.379C176.321 16.1424 175.84 16.0241 175.29 16.0241C174.718 16.0241 174.21 16.154 173.767 16.4137C173.33 16.6676 172.987 17.0109 172.739 17.4437C172.491 17.8708 172.364 18.3468 172.358 18.872V21.0446C172.358 21.7025 172.482 22.2709 172.73 22.7499C172.984 23.2289 173.342 23.5982 173.802 23.8579C174.263 24.1175 174.809 24.2474 175.441 24.2474C175.86 24.2474 176.244 24.1897 176.593 24.0743C176.941 23.9588 177.239 23.7857 177.487 23.5549C177.735 23.3241 177.924 23.0413 178.054 22.7066L181.544 22.9317C181.367 23.7511 181.004 24.4667 180.455 25.0784C179.911 25.6843 179.209 26.1575 178.346 26.498C177.49 26.8327 176.501 27 175.379 27Z" fill="white"/>
<path d="M26.7108 32.5264C21.6232 32.3968 16.764 32.9202 13.2518 32.1475C6.41276 30.643 9.96466 21.2015 13.0521 14.9162C14.3976 12.1771 14.8854 10.4091 14.6171 8.7895C14.2882 6.80453 12.8781 4.66309 9.72816 3" stroke="url(#paint0_linear_301_3518)" stroke-width="5" stroke-linecap="round"/>
<path d="M9.69078 3C7.25921 7.47086 4.37641 11.4173 3.28946 14.8453C1.1729 21.5204 11.1254 23.1651 18.1123 23.6339C21.1572 23.8382 22.9322 24.2998 24.2007 25.342C25.7553 26.6192 26.9048 28.9111 26.7701 32.4706" stroke="url(#paint1_linear_301_3518)" stroke-width="5" stroke-linecap="round"/>
<path d="M9.69078 3C7.25921 7.47086 4.37641 11.4173 3.28946 14.8453C1.1729 21.5204 11.1254 23.1651 18.1123 23.6339C21.1572 23.8382 22.9322 24.2998 24.2007 25.342C25.7553 26.6192 26.9048 28.9111 26.7701 32.4706" stroke="url(#paint2_linear_301_3518)" stroke-width="5" stroke-linecap="round"/>
<defs>
<linearGradient id="paint0_linear_301_3518" x1="24.781" y1="33.8773" x2="11.3817" y2="3.95832" gradientUnits="userSpaceOnUse">
<stop stop-color="#855EF6"/>
<stop offset="0.244667" stop-color="#3F4FEC"/>
<stop offset="0.614583" stop-color="#2393F1"/>
<stop offset="1" stop-color="#27C6F8"/>
</linearGradient>
<linearGradient id="paint1_linear_301_3518" x1="7.55598" y1="3.99583" x2="27.2779" y2="33.135" gradientUnits="userSpaceOnUse">
<stop stop-color="#855EF6"/>
<stop offset="0.244667" stop-color="#3F4FEC"/>
<stop offset="0.614583" stop-color="#2393F1"/>
<stop offset="1" stop-color="#27ACF8"/>
</linearGradient>
<linearGradient id="paint2_linear_301_3518" x1="9.2609" y1="1.2888" x2="26.4445" y2="29.6662" gradientUnits="userSpaceOnUse">
<stop stop-color="#D7D1F3"/>
<stop offset="0.210948" stop-color="#DCD6F5"/>
<stop offset="0.656031" stop-color="#745BD7"/>
<stop offset="0.993641" stop-color="#855EF6"/>
</linearGradient>
</defs>
</svg>
